<svg width="1430" height="574" viewBox="0 0 1430 574" fill="none" xmlns="http://www.w3.org/2000/svg">
<g clip-path="url(#clip0_273_323)">
<g clip-path="url(#clip1_273_323)">
<path d="M195.318 10.0011C194.566 8.9216 189.915 11.4566 189.314 10.318C188.927 10.0924 188.551 9.85074 188.17 9.61442C166.51 10.0602 141.122 8.64769 119.596 7.36945C97.882 6.08047 76.1734 5.19966 54.4271 6.18788C42.0583 6.75181 29.7163 7.82596 17.4334 9.38348C16.9231 9.44793 16.4237 9.32977 15.9833 9.09346C9.40944 66.1793 9.7478 123.813 9.07109 181.189C8.36752 240.444 7.66932 299.695 6.96575 358.95L5.81641 456.102C198.611 456.397 391.41 456.891 584.204 457.579C696.872 457.982 809.534 458.46 922.197 459.002L922.202 458.884C1026.88 459.297 1131.55 459.765 1236.23 460.296C1237.74 450.511 1238.46 423.598 1237.49 413.823C1236.04 399.268 1234.86 384.687 1233.98 370.084C1232.23 340.931 1231.66 311.704 1232.26 282.497C1232.85 253.302 1235.11 224.251 1237.2 195.131C1238.24 180.619 1239.05 166.086 1238.94 151.537C1238.84 137.503 1237.61 123.582 1235.86 109.666C1232.52 83.124 1227.92 56.0393 1232.66 29.3466C1233.19 26.3551 1233.85 23.3904 1234.62 20.4526C1230.85 18.2989 1226.9 16.6823 1222.81 15.4739C1183.89 16.1775 1194.48 14.0829 1155.56 14.2494C1143.47 14.3031 1078.52 16.822 1062.52 16.779C1040.7 17.402 1021.34 15.7693 999.509 16.2205L991.813 16.446C981.748 16.3816 975.437 16.3386 975.437 16.3386C975.437 16.3386 906.412 15.3665 871.9 14.5663C870.928 15.2161 869.649 15.2698 868.683 14.4911C863.156 14.3622 857.63 14.2279 852.108 14.0829C852.049 14.1473 851.985 14.2118 851.926 14.2762C850.932 15.3396 849.273 15.5545 848.134 14.5824C847.93 14.4105 847.753 14.2011 847.613 13.9701C846.48 13.9433 845.347 13.911 844.213 13.8842C839.262 13.7553 834.304 13.6156 829.353 13.476C823.928 19.4375 820.523 10.3824 813.616 14.5018C813.616 14.5018 212.687 9.77556 206.463 9.77556C200.238 9.77556 195.318 10.0011 195.318 10.0011Z" fill="#CA6341"/>
<path d="M1415.2 393.704C1414.19 363.375 1413.68 333.036 1413.65 302.691C1413.63 272.851 1414.64 242.861 1409.46 213.343C1404.63 185.743 1395.84 157.939 1399.56 129.635C1399.89 127.153 1400.32 124.694 1400.86 122.25C1400.62 122.089 1400.39 121.895 1400.19 121.67C1392.5 112.926 1382.8 106.068 1372.86 99.9826C1361.97 93.3121 1350.77 87.1035 1339.67 80.7822C1316.74 67.7312 1293.58 55.11 1269.79 43.6273C1258.95 38.3962 1247.93 32.9341 1238.88 25.0015C1233.27 50.0185 1236.72 75.8089 1240 100.939C1241.81 114.811 1243.51 128.695 1243.98 142.691C1244.46 157.117 1243.92 171.559 1243.02 185.963C1241.2 215.169 1238.5 244.273 1237.68 273.533C1236.84 303.019 1237.2 332.536 1238.76 361.99C1239.53 376.647 1240.6 391.282 1241.97 405.896C1243.2 419.011 1243.47 449.184 1241.18 462.316C1240.65 465.398 1240.76 463.873 1239.72 466.822C1248.14 470.033 1258.09 469.98 1267.72 476.591C1279.14 484.427 1291.17 491.339 1303.34 497.977C1315.7 504.712 1328.22 511.147 1340.55 517.914C1353.77 525.17 1366.56 533.054 1379.25 541.153C1392.39 549.526 1405.54 557.937 1419.42 565.085C1424.06 538.349 1421.41 511.071 1419.65 484.174C1417.68 454.039 1416.19 423.882 1415.2 393.704Z" fill="#CA6341"/>
<path d="M1342.51 524.874C1330.22 518.021 1317.72 511.576 1305.33 504.905C1292.88 498.197 1280.55 491.242 1268.75 483.476C1257.15 475.834 1249.6 474.69 1238.71 470.764C1237.09 470.178 1232.4 466.628 1232.56 465.796C1232.57 465.731 1229.62 465.441 1229.64 465.377C1208.69 465.269 1187.74 465.178 1166.79 465.076L1167.57 465.871L1127.28 465.049L1045.76 466L906.009 464.286C713.376 463.379 520.743 462.664 328.11 462.149C221.383 461.864 114.655 461.639 7.92725 461.478C21.7731 472.59 35.6457 483.707 50.3133 493.729C57.639 498.734 65.1688 503.445 72.951 507.714C76.8502 509.852 80.9105 511.732 84.713 514.036C88.725 516.469 92.0226 519.546 95.2934 522.881C101.926 529.638 108.559 536.4 115.192 543.156C115.337 543.135 115.482 543.124 115.643 543.129C172.149 544.268 228.665 544.311 285.182 543.962C341.446 543.613 397.71 542.957 453.974 542.399C485.576 542.087 517.177 541.77 548.773 541.459C549.853 541.448 550.637 541.969 551.104 542.683C584.532 546.738 801.06 550.589 801.247 551.046C806.441 550.89 811.629 550.74 816.823 550.584C817.172 549.639 817.918 548.914 819.068 548.822C820.11 548.736 821.356 549.418 821.801 550.433C826.619 550.294 831.436 550.149 836.254 550.009C836.259 549.81 836.27 549.612 836.281 549.413C836.367 547.963 838.134 547.028 839.428 547.27C840.798 547.528 841.469 548.618 841.566 549.853C851.179 549.574 860.798 549.3 870.412 549.037C871.363 548.36 872.748 548.307 873.694 548.946C963.256 546.497 1052.85 544.805 1142.43 546.583L1157.54 547.077C1190.31 546.566 1218.07 546.475 1236.64 547.41C1246.84 548.248 1264.42 550.041 1285.43 552.276L1313.2 554.929L1314.72 555.428C1346.57 558.887 1381.63 562.759 1409.77 565.745C1400.13 560.407 1390.79 554.564 1381.5 548.656C1368.66 540.476 1355.83 532.302 1342.51 524.874Z" fill="#CA6341"/>
<mask id="path-4-outside-1_273_323" maskUnits="userSpaceOnUse" x="-18.5864" y="-8.65283" width="1457" height="592" fill="black">
<rect fill="white" x="-18.5864" y="-8.65283" width="1457" height="592"/>
<path d="M1428.14 511.952C1427.67 511.732 1427.2 511.517 1426.72 511.297C1426.08 498.949 1425.03 486.613 1424.27 474.351C1423.4 460.361 1422.64 446.359 1421.98 432.357C1424.13 432.76 1424.94 429.205 1422.66 428.303C1422.37 428.184 1422.07 428.072 1421.77 427.953C1421.11 413.264 1420.55 398.57 1420.11 383.876C1419.22 353.815 1418.81 323.745 1418.88 293.668C1420.03 293.018 1420.27 290.902 1418.89 289.984C1418.94 275.934 1419.06 261.873 1418.41 247.834C1417.72 233.145 1415.89 218.655 1413.05 204.229C1407.63 176.784 1399.7 148.357 1406.64 120.418C1407.17 118.302 1405.13 117.18 1403.44 117.561C1394.6 107.894 1383.73 100.477 1372.47 93.7418C1361.41 87.1196 1350.13 80.8037 1338.91 74.4339C1327.29 67.8386 1315.61 61.3293 1303.8 55.0562C1292.31 48.9497 1280.66 43.203 1268.95 37.4938C1258.62 32.4561 1248.36 27.0209 1240.04 19.0453C1239.98 18.8519 1239.9 18.6693 1239.79 18.5082C1239.65 17.8691 1239.27 17.2676 1238.58 16.8379C1237.68 16.274 1236.76 15.7369 1235.83 15.2267C1236.1 15.2213 1236.37 15.2159 1236.63 15.2106L1233.47 14.0021C1231.5 13.0408 1229.47 12.1976 1227.38 11.4779C1226.34 11.118 1225.29 10.7851 1224.23 10.4789L1223.21 10.0922C1223.09 10.0922 1222.98 10.0976 1222.86 10.0976C1207.61 5.99433 1191.38 6.9933 1175.72 7.6539C1154.5 8.54545 1133.27 9.36181 1112.05 10.0922C1097.79 10.5863 1083.53 11.0375 1069.28 11.4564C1027.77 11.3758 971.968 10.9354 971.968 10.9354C971.968 10.9354 972 10.8388 972.043 10.6938C971.356 10.7313 970.668 10.7528 969.986 10.7528C969.095 10.7528 968.214 10.7099 967.339 10.6508C967.371 10.7313 967.408 10.8065 967.457 10.8764C964.782 10.8441 962.102 10.8173 959.427 10.7797C939.523 10.5219 919.619 10.1943 899.715 9.79683C899.044 9.84516 898.367 9.88814 897.696 9.90963C893.555 10.0332 889.43 9.81832 885.311 9.50144C882.663 9.44236 880.01 9.38865 877.362 9.32957C877.513 9.18993 877.668 9.0503 877.819 8.91066C876.197 8.80861 874.58 8.65823 872.974 8.43803C872.824 8.42728 872.679 8.41654 872.528 8.4058C871.798 8.48636 871.062 8.56156 870.332 8.64749C870.16 8.81399 869.983 8.98048 869.811 9.14697C868.742 9.12012 867.679 9.09325 866.61 9.07177C855.815 10.3178 844.713 7.92781 833.741 6.902C833.268 6.424 832.591 6.12323 831.705 6.14472C745.542 8.35747 659.352 9.47995 573.162 9.49607C487.413 9.50681 401.663 8.42728 315.935 6.25212C267.577 5.02759 168.105 2.81485 168.051 4.24884C160.989 4.13605 153.937 3.92122 147.857 3.62583C126.149 2.5839 104.478 0.784693 82.7422 0.41411C60.7811 0.0381572 38.7986 1.24659 17.0094 4.0179C16.7355 4.0555 16.4724 4.12531 16.2253 4.22735C15.3069 1.98238 11.4561 1.69773 11.107 4.61405C7.20243 37.0373 5.61806 69.6862 4.8393 102.314C3.42142 161.515 3.23881 220.76 2.54061 279.973C1.83167 339.83 1.12273 399.687 0.413792 459.544C0.392309 461.424 1.96057 462.149 3.40531 461.87C2.77693 462.874 2.76081 464.217 3.95849 465.178C11.8589 471.521 19.7593 477.859 27.81 484.003C42.1285 494.932 56.9733 505.282 72.8814 513.778C76.7001 515.819 80.7442 517.597 84.2782 520.121C88.0538 522.812 91.1904 526.335 94.4236 529.633C101.266 536.604 108.103 543.575 114.945 550.546C115.966 551.588 117.862 551.271 118.737 550.24C119.172 549.73 119.36 549.139 119.355 548.554C149.812 549.145 180.281 549.429 210.743 549.499C266.975 549.628 323.207 549.064 379.434 548.505C436.004 547.947 492.574 547.383 549.144 546.824C549.074 546.986 549.01 547.152 548.946 547.319C549.042 547.313 549.139 547.302 549.23 547.297C551.174 547.195 798.466 554.247 799.679 554.961C811.887 555.058 824.09 555.187 836.297 555.385C836.378 555.385 836.458 555.38 836.539 555.38C836.539 555.385 836.539 555.385 836.539 555.391C838.311 555.418 840.084 555.45 841.856 555.482C841.845 555.396 841.824 555.31 841.813 555.224C846.749 555.079 851.685 554.94 856.62 554.8C856.631 554.838 856.642 554.881 856.652 554.918C864.762 553.806 873.006 553.495 881.197 553.602C890.982 552.41 900.655 551.873 910.623 552.448C913.47 552.614 916.316 552.829 919.163 553.081C922.444 552.84 925.731 552.738 929.029 552.926C935.297 552.797 972.145 552.029 991.416 551.755C1100.02 550.213 1208.54 552.066 1316.84 560.466C1350.65 564.151 1384.53 568.195 1418.45 571.793C1419.07 573.539 1421.79 573.99 1423 572.513C1425.68 573.104 1427.43 569.022 1424.64 567.668C1424.52 567.615 1424.41 567.556 1424.29 567.496C1424.7 565.332 1425.06 563.157 1425.37 560.971C1427.49 545.949 1427.59 530.803 1426.93 515.663C1428.89 515.744 1430.23 512.919 1428.14 511.952ZM1419.65 484.169C1420.19 492.349 1420.8 500.561 1421.28 508.783C1399.2 498.595 1377.12 488.412 1355.05 478.224C1331.26 467.246 1307.6 455.919 1282.91 447.073C1269.76 442.363 1256.4 438.26 1242.89 434.742C1242.96 424.989 1242.68 415.166 1242.18 408.393C1266.51 415.418 1290.6 423.313 1314.36 432.084C1326.37 436.514 1338.3 441.166 1350.14 446.037C1362.14 450.973 1374.21 455.935 1385.65 462.09C1396.52 467.939 1407.16 474.781 1419.26 477.746C1419.38 479.883 1419.51 482.026 1419.65 484.169ZM1418.98 473.449C1408.83 470.678 1399.72 465.189 1390.55 460.119C1379.36 453.932 1367.62 448.921 1355.83 444.007C1332.08 434.108 1307.98 425.085 1283.57 416.965C1269.74 412.362 1255.81 408.055 1241.8 404.032C1240.52 390.036 1239.5 376.018 1238.76 361.979C1238.73 361.329 1238.7 360.674 1238.66 360.024C1262.14 369.299 1285.61 378.575 1309.09 387.85C1333.05 397.319 1357.01 406.782 1380.98 416.234C1392.87 420.923 1404.76 425.612 1416.65 430.295C1417.32 444.689 1418.1 459.072 1418.98 473.449ZM1416.45 425.853C1394.54 417.228 1372.65 408.592 1350.76 399.95C1326.81 390.498 1302.87 381.034 1278.93 371.577C1265.46 366.254 1251.98 360.932 1238.51 355.609C1238.49 355.599 1238.46 355.593 1238.44 355.588C1238.06 347.537 1237.77 339.481 1237.57 331.419C1260.38 339.057 1283.11 346.919 1305.76 355.013C1329.23 363.402 1352.62 372.033 1375.91 380.906C1388.98 385.884 1402.01 390.938 1415.02 396.067C1415.11 396.099 1415.2 396.126 1415.28 396.153C1415.61 406.051 1416.01 415.955 1416.45 425.853ZM1415.14 391.744C1392.38 382.78 1369.54 374.042 1346.61 365.545C1323.23 356.882 1299.77 348.461 1276.22 340.287C1263.33 335.813 1250.42 331.414 1237.48 327.085C1237.33 320.023 1237.25 312.96 1237.24 305.898C1260.08 312.869 1282.91 319.851 1305.59 327.3C1328.9 334.948 1352.06 343.09 1374.85 352.183C1387.83 357.36 1400.67 362.86 1413.35 368.735C1413.74 368.918 1414.13 368.972 1414.49 368.929C1414.67 376.534 1414.89 384.139 1415.14 391.744ZM1414.39 364.734C1392.31 354.535 1369.71 345.475 1346.84 337.177C1323.54 328.723 1299.97 321.043 1276.31 313.648C1263.3 309.582 1250.28 305.602 1237.24 301.622C1237.26 292.256 1237.41 282.889 1237.68 273.528C1237.72 271.96 1237.77 270.397 1237.83 268.829C1259.5 276.557 1282.01 281.611 1303.94 288.523C1327.13 295.838 1349.8 304.705 1372.53 313.331C1385.48 318.245 1398.43 323.159 1411.38 328.079C1412.65 328.562 1413.54 327.746 1413.78 326.715C1413.9 339.39 1414.1 352.065 1414.39 364.734ZM1412.46 324.142C1389.64 315.479 1366.84 306.719 1343.97 298.185C1332.56 293.926 1321.09 289.791 1309.5 286.026C1298.17 282.341 1286.69 279.151 1275.21 275.972C1262.7 272.508 1250.21 268.974 1237.99 264.57C1238.43 253.592 1239.1 242.63 1239.85 231.674C1262.6 238.376 1285.23 245.493 1307.72 253.044C1331.37 260.987 1354.88 269.403 1378.2 278.281C1390.07 282.798 1401.9 287.449 1413.68 292.202C1413.66 295.698 1413.65 299.195 1413.65 302.686C1413.66 310.312 1413.7 317.944 1413.76 325.571C1413.61 324.969 1413.19 324.421 1412.46 324.142ZM1413.7 287.836C1392.25 279.194 1370.66 270.934 1348.91 263.082C1325.43 254.607 1301.8 246.599 1278 239.058C1265.42 235.073 1252.8 231.223 1240.14 227.501C1240.87 216.958 1241.66 206.42 1242.38 195.878C1264.16 199.374 1284.85 207.5 1305.05 216.152C1327.58 225.803 1350.05 235.627 1372.55 245.369C1385.32 250.901 1398.09 256.433 1410.87 261.965C1411.97 262.443 1413.01 261.949 1413.57 261.181C1413.75 270.058 1413.73 278.947 1413.7 287.836ZM1413.51 258.812C1413.35 258.667 1413.17 258.544 1412.93 258.441C1390.1 248.554 1367.27 238.672 1344.45 228.784C1322.54 219.299 1300.78 209.095 1278.26 201.125C1266.67 197.027 1254.8 193.692 1242.64 191.806C1242.77 189.857 1242.9 187.907 1243.02 185.958C1243.64 175.979 1244.09 165.984 1244.15 155.989C1288.01 173.997 1331.66 192.51 1375.08 211.544C1387.24 216.877 1399.38 222.248 1411.51 227.656C1412.69 238.006 1413.25 248.398 1413.51 258.812ZM1409.46 213.343C1410.03 216.544 1410.51 219.751 1410.94 222.962C1367.86 203.767 1324.55 185.072 1281.04 166.881C1268.76 161.746 1256.46 156.66 1244.15 151.606C1244.14 148.631 1244.08 145.661 1243.98 142.691C1243.74 135.639 1243.19 128.614 1242.47 121.605C1251.66 127.261 1261.2 132.298 1271.08 136.643C1282.03 141.461 1293.47 144.914 1304.51 149.485C1315.83 154.174 1326.57 160.253 1337.41 165.941C1348.5 171.757 1359.59 177.579 1370.68 183.396C1382.93 189.825 1395.18 196.248 1407.43 202.677C1408.15 206.232 1408.84 209.788 1409.46 213.343ZM1406.38 197.51L1343.72 164.636C1332.85 158.932 1322.08 152.911 1310.9 147.836C1299.99 142.884 1288.46 139.511 1277.4 134.93C1265.07 129.828 1253.21 123.598 1241.94 116.46C1241.93 116.455 1241.93 116.455 1241.92 116.449C1241.34 111.272 1240.68 106.105 1240.01 100.933C1239.65 98.1888 1239.29 95.439 1238.94 92.6838C1280.61 111.25 1322.06 130.311 1363.46 149.49C1375.25 154.952 1387.04 160.431 1398.84 165.903C1399.4 166.167 1399.95 166.161 1400.42 165.995C1401.92 176.548 1404.2 187.048 1406.38 197.51ZM1238.88 24.9961C1247.93 32.9341 1258.95 38.3908 1269.79 43.6219C1293.58 55.1046 1316.74 67.7259 1339.67 80.7768C1350.77 87.0982 1361.97 93.3068 1372.86 99.9773C1382.8 106.062 1392.5 112.926 1400.19 121.664C1400.39 121.89 1400.61 122.083 1400.86 122.244C1400.32 124.688 1399.89 127.148 1399.56 129.629C1399.16 132.707 1398.91 135.779 1398.78 138.851C1377.07 128.308 1355.65 117.169 1334.56 105.434C1313.24 93.5646 1292.25 81.0937 1271.62 68.032C1259.94 60.6311 1248.37 53.0422 1236.93 45.2761C1236.67 45.0988 1236.41 44.9968 1236.17 44.9538C1236.55 38.2672 1237.4 31.6075 1238.88 24.9961ZM1235.97 49.5512C1255.9 63.0533 1276.21 76.0129 1296.87 88.3872C1317.81 100.928 1339.11 112.878 1360.72 124.215C1372.97 130.639 1385.32 136.864 1397.77 142.895C1398.07 143.045 1398.38 143.11 1398.67 143.115C1398.63 149.399 1399.09 155.661 1399.86 161.902C1357.93 142.438 1316 122.975 1273.89 103.925C1262.05 98.5755 1250.21 93.2531 1238.35 87.979C1236.8 75.2127 1235.61 62.3443 1235.97 49.5512ZM6.96075 358.95C7.66432 299.694 8.36252 240.444 9.06609 181.188C9.74817 123.813 9.40444 66.1791 15.9836 9.09326C16.4187 9.32957 16.9181 9.44773 17.4337 9.38328C29.7167 7.82039 42.0587 6.75161 54.4275 6.18768C76.1737 5.19409 97.8823 6.08027 119.596 7.36925C138.217 8.47563 159.711 9.6733 179.196 9.69478C179.486 9.8022 179.813 9.87202 180.168 9.88814L256.916 10.4843C314.383 12.2781 371.866 13.594 429.355 14.4049C515.099 15.6134 600.854 15.7315 686.598 14.754C701.271 14.5876 715.944 14.3835 730.617 14.1525L833.333 14.9474C834.45 14.9152 835.234 14.3835 835.696 13.6477C838.532 13.7282 841.373 13.8034 844.208 13.8786C845.342 13.9108 846.475 13.9377 847.608 13.9645C847.748 14.1955 847.925 14.4049 848.129 14.5768C849.273 15.5489 850.933 15.3341 851.921 14.2707C851.98 14.2062 852.044 14.1418 852.103 14.0773C857.63 14.217 863.156 14.3512 868.678 14.4855C869.644 15.2643 870.923 15.2106 871.895 14.5607C906.402 15.3609 975.432 16.333 975.432 16.333C975.432 16.333 981.743 16.376 991.808 16.4405L999.504 16.2149C1021.33 15.7584 1040.7 17.3965 1062.52 16.7735C1078.51 16.8164 1143.47 14.2922 1155.55 14.2438C1194.48 14.0773 1183.89 16.1719 1222.81 15.4683C1226.89 16.6768 1230.84 18.2934 1234.61 20.4471C1233.84 23.3849 1233.18 26.3495 1232.65 29.341C1227.92 56.0337 1232.52 83.1184 1235.85 109.661C1237.61 123.576 1238.84 137.497 1238.94 151.531C1239.05 166.081 1238.24 180.614 1237.2 195.126C1235.1 224.246 1232.85 253.302 1232.25 282.492C1231.66 311.698 1232.23 340.926 1233.98 370.078C1234.85 384.681 1236.03 399.263 1237.48 413.818C1238.45 423.592 1237.73 450.505 1236.23 460.291C1131.55 459.764 1026.87 459.292 922.197 458.878L922.192 458.996C809.529 458.459 696.862 457.976 584.199 457.573C391.405 456.88 198.611 456.392 5.81141 456.096L6.96075 358.95ZM1314.73 555.434L1313.21 554.934L1285.44 552.281C1264.43 550.047 1246.85 548.258 1236.65 547.415C1218.07 546.481 1190.32 546.572 1157.55 547.082L1142.44 546.588C1052.86 544.81 963.262 546.502 873.705 548.951C872.759 548.312 871.374 548.366 870.423 549.043C860.809 549.306 851.19 549.58 841.577 549.859C841.48 548.624 840.814 547.539 839.439 547.276C838.139 547.029 836.378 547.963 836.292 549.419C836.281 549.617 836.27 549.816 836.265 550.015C831.448 550.154 826.63 550.294 821.812 550.439C821.372 549.424 820.121 548.742 819.079 548.828C817.935 548.919 817.183 549.644 816.834 550.589C811.64 550.745 806.452 550.895 801.258 551.051C801.071 550.595 549.864 541.454 548.784 541.464C517.183 541.776 485.581 542.093 453.985 542.404C397.721 542.963 341.457 543.618 285.193 543.967C228.682 544.316 172.16 544.279 115.654 543.135C115.493 543.129 115.348 543.146 115.203 543.162C108.57 536.405 101.937 529.643 95.3044 522.887C92.0336 519.552 88.7359 516.48 84.724 514.041C80.9215 511.732 76.8612 509.858 72.962 507.72C65.1798 503.45 57.65 498.74 50.3243 493.734C35.6567 483.713 21.784 472.595 7.93823 461.483C114.666 461.65 221.394 461.87 328.121 462.16C520.754 462.675 713.387 463.384 906.021 464.297L1045.77 466.011L1127.3 465.06L1167.58 465.882L1166.8 465.087C1187.75 465.189 1208.7 465.28 1229.65 465.388C1229.64 465.452 1232.58 465.742 1232.56 465.807C1232.4 466.639 1237.1 470.189 1238.71 470.774C1249.6 474.701 1257.16 475.845 1268.76 483.487C1280.56 491.259 1292.88 498.208 1305.34 504.916C1317.72 511.587 1330.23 518.037 1342.51 524.885C1355.83 532.318 1368.67 540.492 1381.52 548.667C1390.8 554.574 1400.15 560.418 1409.78 565.756C1381.64 562.759 1346.58 558.887 1314.73 555.434ZM1419.42 565.074C1405.53 557.926 1392.39 549.515 1379.25 541.142C1366.55 533.048 1353.76 525.159 1340.54 517.903C1328.21 511.136 1315.69 504.696 1303.34 497.967C1291.17 491.334 1279.13 484.416 1267.72 476.58C1258.08 469.964 1248.13 470.023 1239.71 466.811C1240.76 463.862 1240.64 465.388 1241.18 462.305C1242.15 456.725 1242.66 448.067 1242.83 438.947C1266.81 445.253 1290.24 453.47 1312.94 463.438C1337.2 474.088 1361.13 485.501 1385.17 496.597C1397.29 502.188 1409.4 507.779 1421.52 513.365C1422.38 530.664 1422.39 547.979 1419.42 565.074Z"/>
</mask>
<path d="M1428.14 511.952C1427.67 511.732 1427.2 511.517 1426.72 511.297C1426.08 498.949 1425.03 486.613 1424.27 474.351C1423.4 460.361 1422.64 446.359 1421.98 432.357C1424.13 432.76 1424.94 429.205 1422.66 428.303C1422.37 428.184 1422.07 428.072 1421.77 427.953C1421.11 413.264 1420.55 398.57 1420.11 383.876C1419.22 353.815 1418.81 323.745 1418.88 293.668C1420.03 293.018 1420.27 290.902 1418.89 289.984C1418.94 275.934 1419.06 261.873 1418.41 247.834C1417.72 233.145 1415.89 218.655 1413.05 204.229C1407.63 176.784 1399.7 148.357 1406.64 120.418C1407.17 118.302 1405.13 117.18 1403.44 117.561C1394.6 107.894 1383.73 100.477 1372.47 93.7418C1361.41 87.1196 1350.13 80.8037 1338.91 74.4339C1327.29 67.8386 1315.61 61.3293 1303.8 55.0562C1292.31 48.9497 1280.66 43.203 1268.95 37.4938C1258.62 32.4561 1248.36 27.0209 1240.04 19.0453C1239.98 18.8519 1239.9 18.6693 1239.79 18.5082C1239.65 17.8691 1239.27 17.2676 1238.58 16.8379C1237.68 16.274 1236.76 15.7369 1235.83 15.2267C1236.1 15.2213 1236.37 15.2159 1236.63 15.2106L1233.47 14.0021C1231.5 13.0408 1229.47 12.1976 1227.38 11.4779C1226.34 11.118 1225.29 10.7851 1224.23 10.4789L1223.21 10.0922C1223.09 10.0922 1222.98 10.0976 1222.86 10.0976C1207.61 5.99433 1191.38 6.9933 1175.72 7.6539C1154.5 8.54545 1133.27 9.36181 1112.05 10.0922C1097.79 10.5863 1083.53 11.0375 1069.28 11.4564C1027.77 11.3758 971.968 10.9354 971.968 10.9354C971.968 10.9354 972 10.8388 972.043 10.6938C971.356 10.7313 970.668 10.7528 969.986 10.7528C969.095 10.7528 968.214 10.7099 967.339 10.6508C967.371 10.7313 967.408 10.8065 967.457 10.8764C964.782 10.8441 962.102 10.8173 959.427 10.7797C939.523 10.5219 919.619 10.1943 899.715 9.79683C899.044 9.84516 898.367 9.88814 897.696 9.90963C893.555 10.0332 889.43 9.81832 885.311 9.50144C882.663 9.44236 880.01 9.38865 877.362 9.32957C877.513 9.18993 877.668 9.0503 877.819 8.91066C876.197 8.80861 874.58 8.65823 872.974 8.43803C872.824 8.42728 872.679 8.41654 872.528 8.4058C871.798 8.48636 871.062 8.56156 870.332 8.64749C870.16 8.81399 869.983 8.98048 869.811 9.14697C868.742 9.12012 867.679 9.09325 866.61 9.07177C855.815 10.3178 844.713 7.92781 833.741 6.902C833.268 6.424 832.591 6.12323 831.705 6.14472C745.542 8.35747 659.352 9.47995 573.162 9.49607C487.413 9.50681 401.663 8.42728 315.935 6.25212C267.577 5.02759 168.105 2.81485 168.051 4.24884C160.989 4.13605 153.937 3.92122 147.857 3.62583C126.149 2.5839 104.478 0.784693 82.7422 0.41411C60.7811 0.0381572 38.7986 1.24659 17.0094 4.0179C16.7355 4.0555 16.4724 4.12531 16.2253 4.22735C15.3069 1.98238 11.4561 1.69773 11.107 4.61405C7.20243 37.0373 5.61806 69.6862 4.8393 102.314C3.42142 161.515 3.23881 220.76 2.54061 279.973C1.83167 339.83 1.12273 399.687 0.413792 459.544C0.392309 461.424 1.96057 462.149 3.40531 461.87C2.77693 462.874 2.76081 464.217 3.95849 465.178C11.8589 471.521 19.7593 477.859 27.81 484.003C42.1285 494.932 56.9733 505.282 72.8814 513.778C76.7001 515.819 80.7442 517.597 84.2782 520.121C88.0538 522.812 91.1904 526.335 94.4236 529.633C101.266 536.604 108.103 543.575 114.945 550.546C115.966 551.588 117.862 551.271 118.737 550.24C119.172 549.73 119.36 549.139 119.355 548.554C149.812 549.145 180.281 549.429 210.743 549.499C266.975 549.628 323.207 549.064 379.434 548.505C436.004 547.947 492.574 547.383 549.144 546.824C549.074 546.986 549.01 547.152 548.946 547.319C549.042 547.313 549.139 547.302 549.23 547.297C551.174 547.195 798.466 554.247 799.679 554.961C811.887 555.058 824.09 555.187 836.297 555.385C836.378 555.385 836.458 555.38 836.539 555.38C836.539 555.385 836.539 555.385 836.539 555.391C838.311 555.418 840.084 555.45 841.856 555.482C841.845 555.396 841.824 555.31 841.813 555.224C846.749 555.079 851.685 554.94 856.62 554.8C856.631 554.838 856.642 554.881 856.652 554.918C864.762 553.806 873.006 553.495 881.197 553.602C890.982 552.41 900.655 551.873 910.623 552.448C913.47 552.614 916.316 552.829 919.163 553.081C922.444 552.84 925.731 552.738 929.029 552.926C935.297 552.797 972.145 552.029 991.416 551.755C1100.02 550.213 1208.54 552.066 1316.84 560.466C1350.65 564.151 1384.53 568.195 1418.45 571.793C1419.07 573.539 1421.79 573.99 1423 572.513C1425.68 573.104 1427.43 569.022 1424.64 567.668C1424.52 567.615 1424.41 567.556 1424.29 567.496C1424.7 565.332 1425.06 563.157 1425.37 560.971C1427.49 545.949 1427.59 530.803 1426.93 515.663C1428.89 515.744 1430.23 512.919 1428.14 511.952ZM1419.65 484.169C1420.19 492.349 1420.8 500.561 1421.28 508.783C1399.2 498.595 1377.12 488.412 1355.05 478.224C1331.26 467.246 1307.6 455.919 1282.91 447.073C1269.76 442.363 1256.4 438.26 1242.89 434.742C1242.96 424.989 1242.68 415.166 1242.18 408.393C1266.51 415.418 1290.6 423.313 1314.36 432.084C1326.37 436.514 1338.3 441.166 1350.14 446.037C1362.14 450.973 1374.21 455.935 1385.65 462.09C1396.52 467.939 1407.16 474.781 1419.26 477.746C1419.38 479.883 1419.51 482.026 1419.65 484.169ZM1418.98 473.449C1408.83 470.678 1399.72 465.189 1390.55 460.119C1379.36 453.932 1367.62 448.921 1355.83 444.007C1332.08 434.108 1307.98 425.085 1283.57 416.965C1269.74 412.362 1255.81 408.055 1241.8 404.032C1240.52 390.036 1239.5 376.018 1238.76 361.979C1238.73 361.329 1238.7 360.674 1238.66 360.024C1262.14 369.299 1285.61 378.575 1309.09 387.85C1333.05 397.319 1357.01 406.782 1380.98 416.234C1392.87 420.923 1404.76 425.612 1416.65 430.295C1417.32 444.689 1418.1 459.072 1418.98 473.449ZM1416.45 425.853C1394.54 417.228 1372.65 408.592 1350.76 399.95C1326.81 390.498 1302.87 381.034 1278.93 371.577C1265.46 366.254 1251.98 360.932 1238.51 355.609C1238.49 355.599 1238.46 355.593 1238.44 355.588C1238.06 347.537 1237.77 339.481 1237.57 331.419C1260.38 339.057 1283.11 346.919 1305.76 355.013C1329.23 363.402 1352.62 372.033 1375.91 380.906C1388.98 385.884 1402.01 390.938 1415.02 396.067C1415.11 396.099 1415.2 396.126 1415.28 396.153C1415.61 406.051 1416.01 415.955 1416.45 425.853ZM1415.14 391.744C1392.38 382.78 1369.54 374.042 1346.61 365.545C1323.23 356.882 1299.77 348.461 1276.22 340.287C1263.33 335.813 1250.42 331.414 1237.48 327.085C1237.33 320.023 1237.25 312.96 1237.24 305.898C1260.08 312.869 1282.91 319.851 1305.59 327.3C1328.9 334.948 1352.06 343.09 1374.85 352.183C1387.83 357.36 1400.67 362.86 1413.35 368.735C1413.74 368.918 1414.13 368.972 1414.49 368.929C1414.67 376.534 1414.89 384.139 1415.14 391.744ZM1414.39 364.734C1392.31 354.535 1369.71 345.475 1346.84 337.177C1323.54 328.723 1299.97 321.043 1276.31 313.648C1263.3 309.582 1250.28 305.602 1237.24 301.622C1237.26 292.256 1237.41 282.889 1237.68 273.528C1237.72 271.96 1237.77 270.397 1237.83 268.829C1259.5 276.557 1282.01 281.611 1303.94 288.523C1327.13 295.838 1349.8 304.705 1372.53 313.331C1385.48 318.245 1398.43 323.159 1411.38 328.079C1412.65 328.562 1413.54 327.746 1413.78 326.715C1413.9 339.39 1414.1 352.065 1414.39 364.734ZM1412.46 324.142C1389.64 315.479 1366.84 306.719 1343.97 298.185C1332.56 293.926 1321.09 289.791 1309.5 286.026C1298.17 282.341 1286.69 279.151 1275.21 275.972C1262.7 272.508 1250.21 268.974 1237.99 264.57C1238.43 253.592 1239.1 242.63 1239.85 231.674C1262.6 238.376 1285.23 245.493 1307.72 253.044C1331.37 260.987 1354.88 269.403 1378.2 278.281C1390.07 282.798 1401.9 287.449 1413.68 292.202C1413.66 295.698 1413.65 299.195 1413.65 302.686C1413.66 310.312 1413.7 317.944 1413.76 325.571C1413.61 324.969 1413.19 324.421 1412.46 324.142ZM1413.7 287.836C1392.25 279.194 1370.66 270.934 1348.91 263.082C1325.43 254.607 1301.8 246.599 1278 239.058C1265.42 235.073 1252.8 231.223 1240.14 227.501C1240.87 216.958 1241.66 206.42 1242.38 195.878C1264.16 199.374 1284.85 207.5 1305.05 216.152C1327.58 225.803 1350.05 235.627 1372.55 245.369C1385.32 250.901 1398.09 256.433 1410.87 261.965C1411.97 262.443 1413.01 261.949 1413.57 261.181C1413.75 270.058 1413.73 278.947 1413.7 287.836ZM1413.51 258.812C1413.35 258.667 1413.17 258.544 1412.93 258.441C1390.1 248.554 1367.27 238.672 1344.45 228.784C1322.54 219.299 1300.78 209.095 1278.26 201.125C1266.67 197.027 1254.8 193.692 1242.64 191.806C1242.77 189.857 1242.9 187.907 1243.02 185.958C1243.64 175.979 1244.09 165.984 1244.15 155.989C1288.01 173.997 1331.66 192.51 1375.08 211.544C1387.24 216.877 1399.38 222.248 1411.51 227.656C1412.69 238.006 1413.25 248.398 1413.51 258.812ZM1409.46 213.343C1410.03 216.544 1410.51 219.751 1410.94 222.962C1367.86 203.767 1324.55 185.072 1281.04 166.881C1268.76 161.746 1256.46 156.66 1244.15 151.606C1244.14 148.631 1244.08 145.661 1243.98 142.691C1243.74 135.639 1243.19 128.614 1242.47 121.605C1251.66 127.261 1261.2 132.298 1271.08 136.643C1282.03 141.461 1293.47 144.914 1304.51 149.485C1315.83 154.174 1326.57 160.253 1337.41 165.941C1348.5 171.757 1359.59 177.579 1370.68 183.396C1382.93 189.825 1395.18 196.248 1407.43 202.677C1408.15 206.232 1408.84 209.788 1409.46 213.343ZM1406.38 197.51L1343.72 164.636C1332.85 158.932 1322.08 152.911 1310.9 147.836C1299.99 142.884 1288.46 139.511 1277.4 134.93C1265.07 129.828 1253.21 123.598 1241.94 116.46C1241.93 116.455 1241.93 116.455 1241.92 116.449C1241.34 111.272 1240.68 106.105 1240.01 100.933C1239.65 98.1888 1239.29 95.439 1238.94 92.6838C1280.61 111.25 1322.06 130.311 1363.46 149.49C1375.25 154.952 1387.04 160.431 1398.84 165.903C1399.4 166.167 1399.95 166.161 1400.42 165.995C1401.92 176.548 1404.2 187.048 1406.38 197.51ZM1238.88 24.9961C1247.93 32.9341 1258.95 38.3908 1269.79 43.6219C1293.58 55.1046 1316.74 67.7259 1339.67 80.7768C1350.77 87.0982 1361.97 93.3068 1372.86 99.9773C1382.8 106.062 1392.5 112.926 1400.19 121.664C1400.39 121.89 1400.61 122.083 1400.86 122.244C1400.32 124.688 1399.89 127.148 1399.56 129.629C1399.16 132.707 1398.91 135.779 1398.78 138.851C1377.07 128.308 1355.65 117.169 1334.56 105.434C1313.24 93.5646 1292.25 81.0937 1271.62 68.032C1259.94 60.6311 1248.37 53.0422 1236.93 45.2761C1236.67 45.0988 1236.41 44.9968 1236.17 44.9538C1236.55 38.2672 1237.4 31.6075 1238.88 24.9961ZM1235.97 49.5512C1255.9 63.0533 1276.21 76.0129 1296.87 88.3872C1317.81 100.928 1339.11 112.878 1360.72 124.215C1372.97 130.639 1385.32 136.864 1397.77 142.895C1398.07 143.045 1398.38 143.11 1398.67 143.115C1398.63 149.399 1399.09 155.661 1399.86 161.902C1357.93 142.438 1316 122.975 1273.89 103.925C1262.05 98.5755 1250.21 93.2531 1238.35 87.979C1236.8 75.2127 1235.61 62.3443 1235.97 49.5512ZM6.96075 358.95C7.66432 299.694 8.36252 240.444 9.06609 181.188C9.74817 123.813 9.40444 66.1791 15.9836 9.09326C16.4187 9.32957 16.9181 9.44773 17.4337 9.38328C29.7167 7.82039 42.0587 6.75161 54.4275 6.18768C76.1737 5.19409 97.8823 6.08027 119.596 7.36925C138.217 8.47563 159.711 9.6733 179.196 9.69478C179.486 9.8022 179.813 9.87202 180.168 9.88814L256.916 10.4843C314.383 12.2781 371.866 13.594 429.355 14.4049C515.099 15.6134 600.854 15.7315 686.598 14.754C701.271 14.5876 715.944 14.3835 730.617 14.1525L833.333 14.9474C834.45 14.9152 835.234 14.3835 835.696 13.6477C838.532 13.7282 841.373 13.8034 844.208 13.8786C845.342 13.9108 846.475 13.9377 847.608 13.9645C847.748 14.1955 847.925 14.4049 848.129 14.5768C849.273 15.5489 850.933 15.3341 851.921 14.2707C851.98 14.2062 852.044 14.1418 852.103 14.0773C857.63 14.217 863.156 14.3512 868.678 14.4855C869.644 15.2643 870.923 15.2106 871.895 14.5607C906.402 15.3609 975.432 16.333 975.432 16.333C975.432 16.333 981.743 16.376 991.808 16.4405L999.504 16.2149C1021.33 15.7584 1040.7 17.3965 1062.52 16.7735C1078.51 16.8164 1143.47 14.2922 1155.55 14.2438C1194.48 14.0773 1183.89 16.1719 1222.81 15.4683C1226.89 16.6768 1230.84 18.2934 1234.61 20.4471C1233.84 23.3849 1233.18 26.3495 1232.65 29.341C1227.92 56.0337 1232.52 83.1184 1235.85 109.661C1237.61 123.576 1238.84 137.497 1238.94 151.531C1239.05 166.081 1238.24 180.614 1237.2 195.126C1235.1 224.246 1232.85 253.302 1232.25 282.492C1231.66 311.698 1232.23 340.926 1233.98 370.078C1234.85 384.681 1236.03 399.263 1237.48 413.818C1238.45 423.592 1237.73 450.505 1236.23 460.291C1131.55 459.764 1026.87 459.292 922.197 458.878L922.192 458.996C809.529 458.459 696.862 457.976 584.199 457.573C391.405 456.88 198.611 456.392 5.81141 456.096L6.96075 358.95ZM1314.73 555.434L1313.21 554.934L1285.44 552.281C1264.43 550.047 1246.85 548.258 1236.65 547.415C1218.07 546.481 1190.32 546.572 1157.55 547.082L1142.44 546.588C1052.86 544.81 963.262 546.502 873.705 548.951C872.759 548.312 871.374 548.366 870.423 549.043C860.809 549.306 851.19 549.58 841.577 549.859C841.48 548.624 840.814 547.539 839.439 547.276C838.139 547.029 836.378 547.963 836.292 549.419C836.281 549.617 836.27 549.816 836.265 550.015C831.448 550.154 826.63 550.294 821.812 550.439C821.372 549.424 820.121 548.742 819.079 548.828C817.935 548.919 817.183 549.644 816.834 550.589C811.64 550.745 806.452 550.895 801.258 551.051C801.071 550.595 549.864 541.454 548.784 541.464C517.183 541.776 485.581 542.093 453.985 542.404C397.721 542.963 341.457 543.618 285.193 543.967C228.682 544.316 172.16 544.279 115.654 543.135C115.493 543.129 115.348 543.146 115.203 543.162C108.57 536.405 101.937 529.643 95.3044 522.887C92.0336 519.552 88.7359 516.48 84.724 514.041C80.9215 511.732 76.8612 509.858 72.962 507.72C65.1798 503.45 57.65 498.74 50.3243 493.734C35.6567 483.713 21.784 472.595 7.93823 461.483C114.666 461.65 221.394 461.87 328.121 462.16C520.754 462.675 713.387 463.384 906.021 464.297L1045.77 466.011L1127.3 465.06L1167.58 465.882L1166.8 465.087C1187.75 465.189 1208.7 465.28 1229.65 465.388C1229.64 465.452 1232.58 465.742 1232.56 465.807C1232.4 466.639 1237.1 470.189 1238.71 470.774C1249.6 474.701 1257.16 475.845 1268.76 483.487C1280.56 491.259 1292.88 498.208 1305.34 504.916C1317.72 511.587 1330.23 518.037 1342.51 524.885C1355.83 532.318 1368.67 540.492 1381.52 548.667C1390.8 554.574 1400.15 560.418 1409.78 565.756C1381.64 562.759 1346.58 558.887 1314.73 555.434ZM1419.42 565.074C1405.53 557.926 1392.39 549.515 1379.25 541.142C1366.55 533.048 1353.76 525.159 1340.54 517.903C1328.21 511.136 1315.69 504.696 1303.34 497.967C1291.17 491.334 1279.13 484.416 1267.72 476.58C1258.08 469.964 1248.13 470.023 1239.71 466.811C1240.76 463.862 1240.64 465.388 1241.18 462.305C1242.15 456.725 1242.66 448.067 1242.83 438.947C1266.81 445.253 1290.24 453.47 1312.94 463.438C1337.2 474.088 1361.13 485.501 1385.17 496.597C1397.29 502.188 1409.4 507.779 1421.52 513.365C1422.38 530.664 1422.39 547.979 1419.42 565.074Z" fill="#0F0703"/>
<path d="M1428.14 511.952C1427.67 511.732 1427.2 511.517 1426.72 511.297C1426.08 498.949 1425.03 486.613 1424.27 474.351C1423.4 460.361 1422.64 446.359 1421.98 432.357C1424.13 432.76 1424.94 429.205 1422.66 428.303C1422.37 428.184 1422.07 428.072 1421.77 427.953C1421.11 413.264 1420.55 398.57 1420.11 383.876C1419.22 353.815 1418.81 323.745 1418.88 293.668C1420.03 293.018 1420.27 290.902 1418.89 289.984C1418.94 275.934 1419.06 261.873 1418.41 247.834C1417.72 233.145 1415.89 218.655 1413.05 204.229C1407.63 176.784 1399.7 148.357 1406.64 120.418C1407.17 118.302 1405.13 117.18 1403.44 117.561C1394.6 107.894 1383.73 100.477 1372.47 93.7418C1361.41 87.1196 1350.13 80.8037 1338.91 74.4339C1327.29 67.8386 1315.61 61.3293 1303.8 55.0562C1292.31 48.9497 1280.66 43.203 1268.95 37.4938C1258.62 32.4561 1248.36 27.0209 1240.04 19.0453C1239.98 18.8519 1239.9 18.6693 1239.79 18.5082C1239.65 17.8691 1239.27 17.2676 1238.58 16.8379C1237.68 16.274 1236.76 15.7369 1235.83 15.2267C1236.1 15.2213 1236.37 15.2159 1236.63 15.2106L1233.47 14.0021C1231.5 13.0408 1229.47 12.1976 1227.38 11.4779C1226.34 11.118 1225.29 10.7851 1224.23 10.4789L1223.21 10.0922C1223.09 10.0922 1222.98 10.0976 1222.86 10.0976C1207.61 5.99433 1191.38 6.9933 1175.72 7.6539C1154.5 8.54545 1133.27 9.36181 1112.05 10.0922C1097.79 10.5863 1083.53 11.0375 1069.28 11.4564C1027.77 11.3758 971.968 10.9354 971.968 10.9354C971.968 10.9354 972 10.8388 972.043 10.6938C971.356 10.7313 970.668 10.7528 969.986 10.7528C969.095 10.7528 968.214 10.7099 967.339 10.6508C967.371 10.7313 967.408 10.8065 967.457 10.8764C964.782 10.8441 962.102 10.8173 959.427 10.7797C939.523 10.5219 919.619 10.1943 899.715 9.79683C899.044 9.84516 898.367 9.88814 897.696 9.90963C893.555 10.0332 889.43 9.81832 885.311 9.50144C882.663 9.44236 880.01 9.38865 877.362 9.32957C877.513 9.18993 877.668 9.0503 877.819 8.91066C876.197 8.80861 874.58 8.65823 872.974 8.43803C872.824 8.42728 872.679 8.41654 872.528 8.4058C871.798 8.48636 871.062 8.56156 870.332 8.64749C870.16 8.81399 869.983 8.98048 869.811 9.14697C868.742 9.12012 867.679 9.09325 866.61 9.07177C855.815 10.3178 844.713 7.92781 833.741 6.902C833.268 6.424 832.591 6.12323 831.705 6.14472C745.542 8.35747 659.352 9.47995 573.162 9.49607C487.413 9.50681 401.663 8.42728 315.935 6.25212C267.577 5.02759 168.105 2.81485 168.051 4.24884C160.989 4.13605 153.937 3.92122 147.857 3.62583C126.149 2.5839 104.478 0.784693 82.7422 0.41411C60.7811 0.0381572 38.7986 1.24659 17.0094 4.0179C16.7355 4.0555 16.4724 4.12531 16.2253 4.22735C15.3069 1.98238 11.4561 1.69773 11.107 4.61405C7.20243 37.0373 5.61806 69.6862 4.8393 102.314C3.42142 161.515 3.23881 220.76 2.54061 279.973C1.83167 339.83 1.12273 399.687 0.413792 459.544C0.392309 461.424 1.96057 462.149 3.40531 461.87C2.77693 462.874 2.76081 464.217 3.95849 465.178C11.8589 471.521 19.7593 477.859 27.81 484.003C42.1285 494.932 56.9733 505.282 72.8814 513.778C76.7001 515.819 80.7442 517.597 84.2782 520.121C88.0538 522.812 91.1904 526.335 94.4236 529.633C101.266 536.604 108.103 543.575 114.945 550.546C115.966 551.588 117.862 551.271 118.737 550.24C119.172 549.73 119.36 549.139 119.355 548.554C149.812 549.145 180.281 549.429 210.743 549.499C266.975 549.628 323.207 549.064 379.434 548.505C436.004 547.947 492.574 547.383 549.144 546.824C549.074 546.986 549.01 547.152 548.946 547.319C549.042 547.313 549.139 547.302 549.23 547.297C551.174 547.195 798.466 554.247 799.679 554.961C811.887 555.058 824.09 555.187 836.297 555.385C836.378 555.385 836.458 555.38 836.539 555.38C836.539 555.385 836.539 555.385 836.539 555.391C838.311 555.418 840.084 555.45 841.856 555.482C841.845 555.396 841.824 555.31 841.813 555.224C846.749 555.079 851.685 554.94 856.62 554.8C856.631 554.838 856.642 554.881 856.652 554.918C864.762 553.806 873.006 553.495 881.197 553.602C890.982 552.41 900.655 551.873 910.623 552.448C913.47 552.614 916.316 552.829 919.163 553.081C922.444 552.84 925.731 552.738 929.029 552.926C935.297 552.797 972.145 552.029 991.416 551.755C1100.02 550.213 1208.54 552.066 1316.84 560.466C1350.65 564.151 1384.53 568.195 1418.45 571.793C1419.07 573.539 1421.79 573.99 1423 572.513C1425.68 573.104 1427.43 569.022 1424.64 567.668C1424.52 567.615 1424.41 567.556 1424.29 567.496C1424.7 565.332 1425.06 563.157 1425.37 560.971C1427.49 545.949 1427.59 530.803 1426.93 515.663C1428.89 515.744 1430.23 512.919 1428.14 511.952ZM1419.65 484.169C1420.19 492.349 1420.8 500.561 1421.28 508.783C1399.2 498.595 1377.12 488.412 1355.05 478.224C1331.26 467.246 1307.6 455.919 1282.91 447.073C1269.76 442.363 1256.4 438.26 1242.89 434.742C1242.96 424.989 1242.68 415.166 1242.18 408.393C1266.51 415.418 1290.6 423.313 1314.36 432.084C1326.37 436.514 1338.3 441.166 1350.14 446.037C1362.14 450.973 1374.21 455.935 1385.65 462.09C1396.52 467.939 1407.16 474.781 1419.26 477.746C1419.38 479.883 1419.51 482.026 1419.65 484.169ZM1418.98 473.449C1408.83 470.678 1399.72 465.189 1390.55 460.119C1379.36 453.932 1367.62 448.921 1355.83 444.007C1332.08 434.108 1307.98 425.085 1283.57 416.965C1269.74 412.362 1255.81 408.055 1241.8 404.032C1240.52 390.036 1239.5 376.018 1238.76 361.979C1238.73 361.329 1238.7 360.674 1238.66 360.024C1262.14 369.299 1285.61 378.575 1309.09 387.85C1333.05 397.319 1357.01 406.782 1380.98 416.234C1392.87 420.923 1404.76 425.612 1416.65 430.295C1417.32 444.689 1418.1 459.072 1418.98 473.449ZM1416.45 425.853C1394.54 417.228 1372.65 408.592 1350.76 399.95C1326.81 390.498 1302.87 381.034 1278.93 371.577C1265.46 366.254 1251.98 360.932 1238.51 355.609C1238.49 355.599 1238.46 355.593 1238.44 355.588C1238.06 347.537 1237.77 339.481 1237.57 331.419C1260.38 339.057 1283.11 346.919 1305.76 355.013C1329.23 363.402 1352.62 372.033 1375.91 380.906C1388.98 385.884 1402.01 390.938 1415.02 396.067C1415.11 396.099 1415.2 396.126 1415.28 396.153C1415.61 406.051 1416.01 415.955 1416.45 425.853ZM1415.14 391.744C1392.38 382.78 1369.54 374.042 1346.61 365.545C1323.23 356.882 1299.77 348.461 1276.22 340.287C1263.33 335.813 1250.42 331.414 1237.48 327.085C1237.33 320.023 1237.25 312.96 1237.24 305.898C1260.08 312.869 1282.91 319.851 1305.59 327.3C1328.9 334.948 1352.06 343.09 1374.85 352.183C1387.83 357.36 1400.67 362.86 1413.35 368.735C1413.74 368.918 1414.13 368.972 1414.49 368.929C1414.67 376.534 1414.89 384.139 1415.14 391.744ZM1414.39 364.734C1392.31 354.535 1369.71 345.475 1346.84 337.177C1323.54 328.723 1299.97 321.043 1276.31 313.648C1263.3 309.582 1250.28 305.602 1237.24 301.622C1237.26 292.256 1237.41 282.889 1237.68 273.528C1237.72 271.96 1237.77 270.397 1237.83 268.829C1259.5 276.557 1282.01 281.611 1303.94 288.523C1327.13 295.838 1349.8 304.705 1372.53 313.331C1385.48 318.245 1398.43 323.159 1411.38 328.079C1412.65 328.562 1413.54 327.746 1413.78 326.715C1413.9 339.39 1414.1 352.065 1414.39 364.734ZM1412.46 324.142C1389.64 315.479 1366.84 306.719 1343.97 298.185C1332.56 293.926 1321.09 289.791 1309.5 286.026C1298.17 282.341 1286.69 279.151 1275.21 275.972C1262.7 272.508 1250.21 268.974 1237.99 264.57C1238.43 253.592 1239.1 242.63 1239.85 231.674C1262.6 238.376 1285.23 245.493 1307.72 253.044C1331.37 260.987 1354.88 269.403 1378.2 278.281C1390.07 282.798 1401.9 287.449 1413.68 292.202C1413.66 295.698 1413.65 299.195 1413.65 302.686C1413.66 310.312 1413.7 317.944 1413.76 325.571C1413.61 324.969 1413.19 324.421 1412.46 324.142ZM1413.7 287.836C1392.25 279.194 1370.66 270.934 1348.91 263.082C1325.43 254.607 1301.8 246.599 1278 239.058C1265.42 235.073 1252.8 231.223 1240.14 227.501C1240.87 216.958 1241.66 206.42 1242.38 195.878C1264.16 199.374 1284.85 207.5 1305.05 216.152C1327.58 225.803 1350.05 235.627 1372.55 245.369C1385.32 250.901 1398.09 256.433 1410.87 261.965C1411.97 262.443 1413.01 261.949 1413.57 261.181C1413.75 270.058 1413.73 278.947 1413.7 287.836ZM1413.51 258.812C1413.35 258.667 1413.17 258.544 1412.93 258.441C1390.1 248.554 1367.27 238.672 1344.45 228.784C1322.54 219.299 1300.78 209.095 1278.26 201.125C1266.67 197.027 1254.8 193.692 1242.64 191.806C1242.77 189.857 1242.9 187.907 1243.02 185.958C1243.64 175.979 1244.09 165.984 1244.15 155.989C1288.01 173.997 1331.66 192.51 1375.08 211.544C1387.24 216.877 1399.38 222.248 1411.51 227.656C1412.69 238.006 1413.25 248.398 1413.51 258.812ZM1409.46 213.343C1410.03 216.544 1410.51 219.751 1410.94 222.962C1367.86 203.767 1324.55 185.072 1281.04 166.881C1268.76 161.746 1256.46 156.66 1244.15 151.606C1244.14 148.631 1244.08 145.661 1243.98 142.691C1243.74 135.639 1243.19 128.614 1242.47 121.605C1251.66 127.261 1261.2 132.298 1271.08 136.643C1282.03 141.461 1293.47 144.914 1304.51 149.485C1315.83 154.174 1326.57 160.253 1337.41 165.941C1348.5 171.757 1359.59 177.579 1370.68 183.396C1382.93 189.825 1395.18 196.248 1407.43 202.677C1408.15 206.232 1408.84 209.788 1409.46 213.343ZM1406.38 197.51L1343.72 164.636C1332.85 158.932 1322.08 152.911 1310.9 147.836C1299.99 142.884 1288.46 139.511 1277.4 134.93C1265.07 129.828 1253.21 123.598 1241.94 116.46C1241.93 116.455 1241.93 116.455 1241.92 116.449C1241.34 111.272 1240.68 106.105 1240.01 100.933C1239.65 98.1888 1239.29 95.439 1238.94 92.6838C1280.61 111.25 1322.06 130.311 1363.46 149.49C1375.25 154.952 1387.04 160.431 1398.84 165.903C1399.4 166.167 1399.95 166.161 1400.42 165.995C1401.92 176.548 1404.2 187.048 1406.38 197.51ZM1238.88 24.9961C1247.93 32.9341 1258.95 38.3908 1269.79 43.6219C1293.58 55.1046 1316.74 67.7259 1339.67 80.7768C1350.77 87.0982 1361.97 93.3068 1372.86 99.9773C1382.8 106.062 1392.5 112.926 1400.19 121.664C1400.39 121.89 1400.61 122.083 1400.86 122.244C1400.32 124.688 1399.89 127.148 1399.56 129.629C1399.16 132.707 1398.91 135.779 1398.78 138.851C1377.07 128.308 1355.65 117.169 1334.56 105.434C1313.24 93.5646 1292.25 81.0937 1271.62 68.032C1259.94 60.6311 1248.37 53.0422 1236.93 45.2761C1236.67 45.0988 1236.41 44.9968 1236.17 44.9538C1236.55 38.2672 1237.4 31.6075 1238.88 24.9961ZM1235.97 49.5512C1255.9 63.0533 1276.21 76.0129 1296.87 88.3872C1317.81 100.928 1339.11 112.878 1360.72 124.215C1372.97 130.639 1385.32 136.864 1397.77 142.895C1398.07 143.045 1398.38 143.11 1398.67 143.115C1398.63 149.399 1399.09 155.661 1399.86 161.902C1357.93 142.438 1316 122.975 1273.89 103.925C1262.05 98.5755 1250.21 93.2531 1238.35 87.979C1236.8 75.2127 1235.61 62.3443 1235.97 49.5512ZM6.96075 358.95C7.66432 299.694 8.36252 240.444 9.06609 181.188C9.74817 123.813 9.40444 66.1791 15.9836 9.09326C16.4187 9.32957 16.9181 9.44773 17.4337 9.38328C29.7167 7.82039 42.0587 6.75161 54.4275 6.18768C76.1737 5.19409 97.8823 6.08027 119.596 7.36925C138.217 8.47563 159.711 9.6733 179.196 9.69478C179.486 9.8022 179.813 9.87202 180.168 9.88814L256.916 10.4843C314.383 12.2781 371.866 13.594 429.355 14.4049C515.099 15.6134 600.854 15.7315 686.598 14.754C701.271 14.5876 715.944 14.3835 730.617 14.1525L833.333 14.9474C834.45 14.9152 835.234 14.3835 835.696 13.6477C838.532 13.7282 841.373 13.8034 844.208 13.8786C845.342 13.9108 846.475 13.9377 847.608 13.9645C847.748 14.1955 847.925 14.4049 848.129 14.5768C849.273 15.5489 850.933 15.3341 851.921 14.2707C851.98 14.2062 852.044 14.1418 852.103 14.0773C857.63 14.217 863.156 14.3512 868.678 14.4855C869.644 15.2643 870.923 15.2106 871.895 14.5607C906.402 15.3609 975.432 16.333 975.432 16.333C975.432 16.333 981.743 16.376 991.808 16.4405L999.504 16.2149C1021.33 15.7584 1040.7 17.3965 1062.52 16.7735C1078.51 16.8164 1143.47 14.2922 1155.55 14.2438C1194.48 14.0773 1183.89 16.1719 1222.81 15.4683C1226.89 16.6768 1230.84 18.2934 1234.61 20.4471C1233.84 23.3849 1233.18 26.3495 1232.65 29.341C1227.92 56.0337 1232.52 83.1184 1235.85 109.661C1237.61 123.576 1238.84 137.497 1238.94 151.531C1239.05 166.081 1238.24 180.614 1237.2 195.126C1235.1 224.246 1232.85 253.302 1232.25 282.492C1231.66 311.698 1232.23 340.926 1233.98 370.078C1234.85 384.681 1236.03 399.263 1237.48 413.818C1238.45 423.592 1237.73 450.505 1236.23 460.291C1131.55 459.764 1026.87 459.292 922.197 458.878L922.192 458.996C809.529 458.459 696.862 457.976 584.199 457.573C391.405 456.88 198.611 456.392 5.81141 456.096L6.96075 358.95ZM1314.73 555.434L1313.21 554.934L1285.44 552.281C1264.43 550.047 1246.85 548.258 1236.65 547.415C1218.07 546.481 1190.32 546.572 1157.55 547.082L1142.44 546.588C1052.86 544.81 963.262 546.502 873.705 548.951C872.759 548.312 871.374 548.366 870.423 549.043C860.809 549.306 851.19 549.58 841.577 549.859C841.48 548.624 840.814 547.539 839.439 547.276C838.139 547.029 836.378 547.963 836.292 549.419C836.281 549.617 836.27 549.816 836.265 550.015C831.448 550.154 826.63 550.294 821.812 550.439C821.372 549.424 820.121 548.742 819.079 548.828C817.935 548.919 817.183 549.644 816.834 550.589C811.64 550.745 806.452 550.895 801.258 551.051C801.071 550.595 549.864 541.454 548.784 541.464C517.183 541.776 485.581 542.093 453.985 542.404C397.721 542.963 341.457 543.618 285.193 543.967C228.682 544.316 172.16 544.279 115.654 543.135C115.493 543.129 115.348 543.146 115.203 543.162C108.57 536.405 101.937 529.643 95.3044 522.887C92.0336 519.552 88.7359 516.48 84.724 514.041C80.9215 511.732 76.8612 509.858 72.962 507.72C65.1798 503.45 57.65 498.74 50.3243 493.734C35.6567 483.713 21.784 472.595 7.93823 461.483C114.666 461.65 221.394 461.87 328.121 462.16C520.754 462.675 713.387 463.384 906.021 464.297L1045.77 466.011L1127.3 465.06L1167.58 465.882L1166.8 465.087C1187.75 465.189 1208.7 465.28 1229.65 465.388C1229.64 465.452 1232.58 465.742 1232.56 465.807C1232.4 466.639 1237.1 470.189 1238.71 470.774C1249.6 474.701 1257.16 475.845 1268.76 483.487C1280.56 491.259 1292.88 498.208 1305.34 504.916C1317.72 511.587 1330.23 518.037 1342.51 524.885C1355.83 532.318 1368.67 540.492 1381.52 548.667C1390.8 554.574 1400.15 560.418 1409.78 565.756C1381.64 562.759 1346.58 558.887 1314.73 555.434ZM1419.42 565.074C1405.53 557.926 1392.39 549.515 1379.25 541.142C1366.55 533.048 1353.76 525.159 1340.54 517.903C1328.21 511.136 1315.69 504.696 1303.34 497.967C1291.17 491.334 1279.13 484.416 1267.72 476.58C1258.08 469.964 1248.13 470.023 1239.71 466.811C1240.76 463.862 1240.64 465.388 1241.18 462.305C1242.15 456.725 1242.66 448.067 1242.83 438.947C1266.81 445.253 1290.24 453.47 1312.94 463.438C1337.2 474.088 1361.13 485.501 1385.17 496.597C1397.29 502.188 1409.4 507.779 1421.52 513.365C1422.38 530.664 1422.39 547.979 1419.42 565.074Z" stroke="#0F0703" stroke-width="18" mask="url(#path-4-outside-1_273_323)"/>
</g>
</g>
<defs>
<clipPath id="clip0_273_323">
<rect width="1429.16" height="573.597" fill="white" transform="translate(0.246582 0.0327148)"/>
</clipPath>
<clipPath id="clip1_273_323">
<rect width="1428.78" height="573.054" fill="white" transform="translate(0.413086 0.347168)"/>
</clipPath>
</defs>
</svg>
