<svg xmlns="http://www.w3.org/2000/svg" width="94" height="39" viewBox="0 0 94 39" fill="none">
  <g clip-path="url(#clip0_14_692)">
    <path d="M56.9863 0.594305C57.0566 0.596132 57.1266 0.59796 57.1969 0.599422C57.2082 0.588091 57.2199 0.57676 57.2312 0.56543C57.1496 0.574933 57.068 0.584436 56.9863 0.594305Z" fill="#CE9C64"/>
    <path d="M57.8319 0.588856C57.7958 0.587394 57.7594 0.585201 57.7234 0.583008C57.7135 0.592511 57.7033 0.601649 57.6934 0.611517C57.8676 0.615538 58.0421 0.619193 58.2163 0.623214C58.088 0.612979 57.9598 0.601283 57.8319 0.589221V0.588856Z" fill="#CE9C64"/>
    <path d="M22.8775 1.14256C22.474 1.13964 22.0705 1.13635 21.667 1.13269L22.8775 1.14256Z" fill="#CA6341"/>
    <path d="M12.8232 0.656788C12.7737 0.583321 12.4677 0.75584 12.4281 0.678353C12.4027 0.663001 12.3779 0.646554 12.3529 0.630471C10.9278 0.660808 9.25758 0.56468 7.84138 0.477689C6.41282 0.389967 4.98461 0.330024 3.55392 0.397278C2.74018 0.435656 1.9282 0.508757 1.1201 0.614754C1.08653 0.619141 1.05367 0.611099 1.0247 0.595017C0.591855 4.47963 0.614469 8.40225 0.569594 12.307C0.523306 16.3396 0.477372 20.3719 0.431084 24.4045L0.355469 31.0162C13.0394 31.0363 25.7237 31.0699 38.4076 31.1167C45.82 31.1441 53.2321 31.1767 60.6441 31.2136V31.2055C67.5311 31.2337 74.4178 31.2655 81.3044 31.3017C81.4037 30.6357 81.4514 28.8041 81.3871 28.1389C81.2917 27.1484 81.214 26.156 81.1564 25.1622C81.0415 23.1783 81.0037 21.1892 81.043 19.2015C81.0822 17.2146 81.2306 15.2376 81.3684 13.2558C81.4369 12.2682 81.4899 11.2792 81.4829 10.289C81.4758 9.33393 81.3949 8.38654 81.28 7.43951C81.0606 5.63317 80.7578 3.78992 81.0695 1.97335C81.1044 1.76976 81.1479 1.568 81.1984 1.36807C80.9504 1.2215 80.6903 1.11148 80.4218 1.02924C77.8611 1.07712 78.5579 0.934573 75.9969 0.945904C75.2018 0.949559 70.9285 1.12098 69.8763 1.11806C68.4403 1.16046 67.1665 1.04934 65.7305 1.08005L65.2242 1.0954C64.562 1.09101 64.1468 1.08809 64.1468 1.08809C64.1468 1.08809 59.6057 1.02193 57.3351 0.967469C57.2711 1.0117 57.187 1.01535 57.1234 0.962352C56.7599 0.95358 56.3963 0.944442 56.033 0.934573C56.0291 0.938959 56.0249 0.943345 56.021 0.947732C55.9556 1.0201 55.8465 1.03472 55.7716 0.968566C55.7581 0.956869 55.7465 0.942614 55.7373 0.926898C55.6627 0.92507 55.5882 0.922877 55.5136 0.92105C55.1878 0.912277 54.8617 0.902774 54.5359 0.893271C54.179 1.29898 53.955 0.682739 53.5006 0.963083C53.5006 0.963083 13.9655 0.641436 13.556 0.641436C13.1465 0.641436 12.8232 0.656788 12.8232 0.656788Z" fill="#CA6341"/>
    <path d="M93.0788 26.7698C93.0127 24.7058 92.9788 22.641 92.9774 20.5759C92.976 18.5452 93.0424 16.5042 92.7018 14.4953C92.3834 12.617 91.8053 10.7248 92.0502 8.79855C92.0718 8.62968 92.1004 8.46228 92.1354 8.29598C92.1198 8.28501 92.105 8.27185 92.0919 8.2565C91.5856 7.66145 90.9474 7.1947 90.2937 6.78058C89.5772 6.32662 88.8405 5.9041 88.1097 5.47389C86.6013 4.58571 85.0781 3.72677 83.5124 2.94531C82.7994 2.58931 82.0746 2.21759 81.4789 1.67773C81.1097 3.38027 81.3369 5.13543 81.5524 6.84564C81.6715 7.78975 81.7838 8.73458 81.8146 9.6871C81.8464 10.6688 81.8103 11.6517 81.7513 12.632C81.6319 14.6196 81.4542 16.6003 81.3998 18.5916C81.345 20.5982 81.3687 22.607 81.4711 24.6115C81.522 25.609 81.5923 26.605 81.6824 27.5995C81.763 28.4921 81.7807 30.5455 81.6305 31.4392C81.5952 31.649 81.6029 31.5452 81.534 31.7458C82.0881 31.9644 82.7428 31.9607 83.3767 32.4107C84.1276 32.944 84.9194 33.4144 85.7201 33.8661C86.5328 34.3245 87.3564 34.7624 88.1677 35.2229C89.0376 35.7167 89.8789 36.2533 90.7142 36.8045C91.5781 37.3743 92.4435 37.9467 93.3569 38.4332C93.6618 36.6137 93.488 34.7572 93.3721 32.9271C93.2424 30.8767 93.1445 28.8243 93.0788 26.7705V26.7698Z" fill="#CA6341"/>
    <path d="M88.2967 35.6962C87.4886 35.2298 86.6656 34.7912 85.8508 34.3372C85.0314 33.8807 84.2205 33.4074 83.4442 32.8788C82.681 32.3587 82.1842 32.2809 81.4676 32.0137C81.3613 31.9738 81.0524 31.7322 81.063 31.6756C81.0637 31.6712 80.8701 31.6515 80.8712 31.6471C79.4928 31.6398 78.1147 31.6335 76.7364 31.6266L76.7876 31.6807L74.1372 31.6248L68.7738 31.6895L59.5795 31.5729C46.9061 31.5111 34.2328 31.4625 21.5595 31.4274C14.5379 31.408 7.51625 31.3927 0.494629 31.3817C1.40555 32.1379 2.31823 32.8945 3.28321 33.5766C3.76517 33.9172 4.26055 34.2378 4.77254 34.5284C5.02907 34.6738 5.2962 34.8018 5.54636 34.9586C5.81031 35.1241 6.02726 35.3336 6.24245 35.5606C6.67883 36.0204 7.1152 36.4805 7.55158 36.9403C7.56112 36.9389 7.57066 36.9382 7.58126 36.9385C11.2988 37.016 15.017 37.0189 18.7352 36.9952C22.4368 36.9714 26.1384 36.9268 29.8401 36.8888C31.9191 36.8676 33.9982 36.846 36.0769 36.8248C36.1479 36.8241 36.1995 36.8596 36.2303 36.9082C38.4295 37.1841 52.6748 37.4462 52.6872 37.4773C53.0289 37.4667 53.3702 37.4564 53.7119 37.4458C53.7348 37.3815 53.7839 37.3322 53.8596 37.326C53.9281 37.3201 54.0101 37.3665 54.0394 37.4356C54.3564 37.4261 54.6733 37.4162 54.9903 37.4067C54.9906 37.3932 54.9913 37.3797 54.992 37.3662C54.9977 37.2675 55.1139 37.2039 55.1991 37.2203C55.2892 37.2379 55.3334 37.3121 55.3397 37.3961C55.9722 37.3771 56.605 37.3585 57.2375 37.3406C57.3001 37.2945 57.3912 37.2909 57.4534 37.3344C63.3457 37.1677 69.2399 37.0526 75.1336 37.1735L76.1275 37.2072C78.2836 37.1724 80.1097 37.1662 81.3316 37.2298C82.0026 37.2869 83.1591 37.4089 84.5413 37.561L86.3685 37.7415L86.4685 37.7755C88.5641 38.0109 90.8704 38.2745 92.7219 38.4777C92.0877 38.1144 91.4728 37.7167 90.8623 37.3146C90.0167 36.7583 89.1726 36.202 88.2963 35.6962H88.2967Z" fill="#CA6341"/>
    <path d="M55.8581 37.7898C55.9111 37.7909 55.9644 37.792 56.0174 37.7931C56.122 37.7737 56.2269 37.7562 56.3322 37.7412C56.3315 37.7386 56.3308 37.7357 56.3301 37.7332C56.0054 37.7427 55.6807 37.7522 55.356 37.762C55.3567 37.7679 55.3581 37.7737 55.3588 37.7796C55.5252 37.7829 55.6916 37.7862 55.8581 37.7898Z" fill="#CE9C64"/>
    <path d="M93.9304 34.817C93.8993 34.8021 93.8682 34.7874 93.8368 34.7725C93.7944 33.9322 93.7255 33.0926 93.6753 32.2581C93.618 31.306 93.5682 30.3531 93.5248 29.4002C93.6661 29.4276 93.7198 29.1857 93.5696 29.1243C93.5502 29.1162 93.5308 29.1086 93.5113 29.1005C93.4675 28.1008 93.4308 27.1008 93.4022 26.1008C93.3431 24.055 93.3163 22.0086 93.3209 19.9617C93.3965 19.9175 93.4124 19.7735 93.3216 19.711C93.3248 18.7548 93.3329 17.7979 93.2898 16.8425C93.2446 15.8428 93.1244 14.8567 92.9372 13.8749C92.5806 12.0072 92.0588 10.0726 92.5156 8.1712C92.5502 8.02719 92.416 7.95079 92.305 7.97675C91.7238 7.31883 91.0083 6.81407 90.2677 6.35572C89.5398 5.90505 88.7981 5.47521 88.06 5.04172C87.295 4.59288 86.5268 4.14988 85.7498 3.72297C84.994 3.30739 84.2273 2.9163 83.4573 2.52776C82.7775 2.18492 82.1023 1.81502 81.5553 1.27224C81.5514 1.25908 81.5461 1.24666 81.5387 1.23569C81.5291 1.1922 81.5041 1.15126 81.4588 1.12202C81.3995 1.08364 81.3394 1.04709 81.2783 1.01237C81.2959 1.01237 81.3133 1.01164 81.3309 1.01127L81.1228 0.929032C80.9931 0.863606 80.8596 0.806221 80.7221 0.757243C80.6536 0.732754 80.5843 0.710093 80.5151 0.689259L80.4479 0.662942C80.4401 0.662942 80.4324 0.662942 80.4246 0.663308C79.4215 0.38406 78.3537 0.452045 77.3233 0.497002C75.9273 0.557676 74.5309 0.613233 73.1344 0.662942C72.1967 0.696569 71.2585 0.727272 70.3208 0.755781C67.5898 0.750299 63.9186 0.720327 63.9186 0.720327C63.9186 0.720327 63.9207 0.713748 63.9235 0.703879C63.8783 0.706438 63.8331 0.7079 63.7882 0.7079C63.7295 0.7079 63.6716 0.704976 63.614 0.700955C63.6161 0.706438 63.6186 0.711555 63.6218 0.716306C63.4458 0.714113 63.2695 0.712286 63.0935 0.709727C61.784 0.692183 60.4745 0.669887 59.1651 0.642839C59.1209 0.646129 59.0764 0.649053 59.0322 0.650515C58.7598 0.658922 58.4884 0.644301 58.2174 0.622737C58.0432 0.618716 57.8686 0.615061 57.6944 0.61104C57.7043 0.601537 57.7146 0.592034 57.7245 0.582531C57.6178 0.575586 57.5114 0.565352 57.4058 0.550366C57.3959 0.549635 57.3863 0.548904 57.3764 0.548173C57.3284 0.553656 57.28 0.558773 57.2319 0.564621C57.2206 0.575952 57.209 0.587282 57.1976 0.598613C57.1273 0.596785 57.0574 0.594958 56.9871 0.593496C56.2768 0.678294 55.5465 0.515643 54.8246 0.445831C54.7935 0.413301 54.749 0.392832 54.6907 0.394294C49.022 0.544883 43.3516 0.621275 37.6811 0.622371C32.0397 0.623102 26.3982 0.549635 20.7582 0.401605C17.5767 0.318269 11.0324 0.16768 11.0289 0.26527C10.5642 0.257595 10.1003 0.242974 9.70032 0.222871C8.27176 0.151963 6.84602 0.0298836 5.41604 0.00429807C3.97123 -0.0212874 2.525 0.0613172 1.09149 0.249554C1.07347 0.252112 1.05615 0.256864 1.0399 0.263808C0.979479 0.111026 0.726133 0.0916543 0.703165 0.290125C0.446639 2.49669 0.342756 4.71825 0.291168 6.93907C0.197886 10.9681 0.185872 15 0.139938 19.0297C0.0932967 23.1033 0.0466555 27.1768 1.43596e-05 31.2504C-0.00139901 31.3784 0.101777 31.4277 0.196826 31.4087C0.155485 31.477 0.154425 31.5684 0.23322 31.6338C0.752987 32.0655 1.27275 32.4968 1.80241 32.9149C2.74442 33.6588 3.72106 34.3631 4.76766 34.9413C5.01889 35.0802 5.28495 35.2012 5.51745 35.373C5.76585 35.5561 5.97221 35.7959 6.18492 36.0203C6.63508 36.4947 7.08488 36.9692 7.53504 37.4436C7.60217 37.5145 7.7269 37.4929 7.7845 37.4227C7.81312 37.388 7.82549 37.3478 7.82513 37.308C9.82894 37.3482 11.8334 37.3676 13.8376 37.3723C17.5371 37.3811 21.2366 37.3427 24.9357 37.3047C28.6575 37.2667 32.3792 37.2283 36.101 37.1903C36.0964 37.2013 36.0922 37.2126 36.0879 37.2239C36.0943 37.2235 36.1006 37.2228 36.1066 37.2225C36.2346 37.2155 52.5038 37.6954 52.5837 37.744C53.3868 37.7506 54.1896 37.7594 54.9928 37.7729C54.9981 37.7729 55.0034 37.7729 55.0087 37.7725C55.0087 37.7725 55.0087 37.7729 55.0087 37.7733C55.1253 37.7751 55.2419 37.7773 55.3585 37.7795C55.3578 37.7736 55.3564 37.7678 55.3557 37.7619C55.6804 37.7521 56.0051 37.7426 56.3298 37.7331C56.3305 37.7356 56.3312 37.7385 56.332 37.7411C56.8655 37.6654 57.4079 37.6442 57.9467 37.6516C58.5905 37.5704 59.2269 37.5339 59.8827 37.573C60.07 37.5843 60.2572 37.5989 60.4445 37.6161C60.6604 37.5997 60.8766 37.5927 61.0936 37.6055C61.5059 37.5967 63.9302 37.5445 65.198 37.5258C72.3433 37.4209 79.4829 37.547 86.6077 38.1187C88.832 38.3694 91.0613 38.6446 93.2926 38.8895C93.3333 39.0083 93.512 39.039 93.5919 38.9385C93.7682 38.9787 93.8834 38.7009 93.6997 38.6088C93.6923 38.6052 93.6845 38.6011 93.6771 38.5971C93.7036 38.4498 93.7276 38.3018 93.7477 38.153C93.8876 37.1307 93.8937 36.1 93.8505 35.0696C93.9795 35.0736 94.0679 34.8814 93.9304 34.8156V34.817ZM93.3721 32.9263C93.4075 33.4829 93.4477 34.0418 93.4788 34.6014C92.0266 33.908 90.574 33.215 89.1218 32.5217C87.5568 31.7746 86 31.0037 84.3757 30.4017C83.5107 30.0812 82.6316 29.8019 81.7426 29.5625C81.7475 28.8988 81.7288 28.2302 81.6959 27.7693C83.2969 28.2474 84.8817 28.7847 86.4452 29.3816C87.2353 29.6831 88.0201 29.9997 88.7992 30.3312C89.5885 30.6671 90.3825 31.0048 91.1351 31.4237C91.8503 31.8217 92.5502 32.2874 93.346 32.4891C93.3548 32.635 93.3633 32.7808 93.3725 32.9263H93.3721ZM93.3276 32.1967C92.6601 32.0081 92.0609 31.6346 91.4577 31.2895C90.7214 30.8685 89.9486 30.5275 89.173 30.193C87.6109 29.5194 86.0251 28.9053 84.4191 28.3527C83.5093 28.0394 82.5927 27.7463 81.6712 27.4725C81.5867 26.52 81.52 25.5661 81.4712 24.6106C81.4691 24.5664 81.467 24.5218 81.4648 24.4776C83.0093 25.1088 84.5538 25.74 86.0982 26.3713C87.6745 27.0157 89.2511 27.6597 90.8277 28.303C91.61 28.6221 92.3923 28.9412 93.1746 29.2599C93.2184 30.2391 93.2697 31.2183 93.3276 32.1967ZM93.1612 28.9576C91.7203 28.3706 90.28 27.7829 88.8394 27.1948C87.2643 26.5515 85.689 25.9074 84.1138 25.2638C83.2277 24.9016 82.3411 24.5393 81.4546 24.1771C81.4532 24.1764 81.4514 24.176 81.45 24.1757C81.4253 23.6278 81.4062 23.0795 81.3931 22.5309C82.8934 23.0506 84.3887 23.5857 85.8788 24.1366C87.4229 24.7075 88.9617 25.2949 90.4942 25.8987C91.3538 26.2375 92.2114 26.5814 93.0675 26.9305C93.0732 26.9327 93.0788 26.9345 93.0845 26.9363C93.1068 27.6103 93.1322 28.2843 93.1615 28.958L93.1612 28.9576ZM93.0746 26.6363C91.5775 26.0262 90.0747 25.4315 88.566 24.8533C87.0282 24.2638 85.4848 23.6906 83.9354 23.1343C83.0874 22.8299 82.238 22.5305 81.3864 22.2359C81.3769 21.7553 81.3712 21.2746 81.3708 20.794C82.8733 21.2684 84.3753 21.7436 85.8678 22.2505C87.4013 22.771 88.925 23.3251 90.4242 23.9439C91.2779 24.2963 92.1231 24.6706 92.9569 25.0704C92.9827 25.0829 93.0082 25.0865 93.0319 25.0836C93.0439 25.6011 93.0584 26.1191 93.0746 26.6366V26.6363ZM93.0255 24.7985C91.5725 24.1044 90.086 23.4878 88.5815 22.9231C87.0487 22.3478 85.4979 21.8251 83.9414 21.3218C83.0856 21.0451 82.2284 20.7743 81.3708 20.5034C81.3723 19.866 81.3818 19.2285 81.3995 18.5914C81.4023 18.4847 81.4058 18.3784 81.4094 18.2716C82.8355 18.7976 84.316 19.1415 85.759 19.6119C87.2847 20.1098 88.7762 20.7132 90.2715 21.3002C91.1235 21.6347 91.9754 21.9691 92.8276 22.3039C92.911 22.3368 92.9697 22.2812 92.9856 22.2111C92.9933 23.0737 93.0068 23.9363 93.0258 24.7985H93.0255ZM92.8986 22.036C91.3969 21.4464 89.8974 20.8503 88.3925 20.2695C87.6416 19.9796 86.8872 19.6982 86.1251 19.442C85.3795 19.1912 84.6244 18.9741 83.869 18.7578C83.0461 18.522 82.2238 18.2815 81.42 17.9818C81.4493 17.2347 81.4931 16.4887 81.5422 15.743C83.039 16.1992 84.528 16.6835 86.0074 17.1974C87.5639 17.738 89.1101 18.3107 90.6443 18.9149C91.4256 19.2223 92.2036 19.5388 92.9785 19.8623C92.9774 20.1003 92.9767 20.3382 92.9771 20.5758C92.9771 21.0948 92.9799 21.6142 92.9842 22.1332C92.9739 22.0919 92.9463 22.0546 92.8986 22.036ZM92.9796 19.5648C91.5687 18.9767 90.1479 18.4145 88.7172 17.8802C87.1727 17.3034 85.6177 16.7584 84.0524 16.2453C83.2245 15.974 82.3941 15.712 81.561 15.4587C81.6094 14.7412 81.6613 14.0241 81.7083 13.3066C83.1418 13.5445 84.5025 14.0975 85.8314 14.6864C87.3141 15.3432 88.7921 16.0117 90.2723 16.6747C91.1129 17.0512 91.9531 17.4277 92.7937 17.8041C92.8661 17.8367 92.9343 17.803 92.9711 17.7508C92.9831 18.355 92.982 18.9602 92.9796 19.5648ZM92.9676 17.5896C92.9573 17.5797 92.9449 17.5713 92.9294 17.5644C91.4277 16.8915 89.9256 16.2189 88.4239 15.546C86.9826 14.9006 85.5512 14.2061 84.0693 13.6637C83.3068 13.3848 82.5259 13.1578 81.7263 13.0295C81.7348 12.8968 81.7429 12.7642 81.751 12.6315C81.7917 11.9524 81.8217 11.2722 81.8256 10.592C84.711 11.8175 87.5826 13.0774 90.439 14.3728C91.2393 14.7357 92.0383 15.1012 92.8361 15.4693C92.9135 16.1736 92.9502 16.8809 92.9676 17.5892V17.5896ZM92.7011 14.4952C92.7382 14.713 92.77 14.9313 92.7979 15.1498C89.9638 13.8435 87.1148 12.5712 84.252 11.3332C83.4443 10.9838 82.6351 10.6376 81.8252 10.2937C81.8242 10.0912 81.8207 9.88908 81.8139 9.68695C81.7984 9.20704 81.762 8.72896 81.7147 8.25197C82.3189 8.63685 82.9471 8.9797 83.5965 9.27539C84.317 9.60325 85.07 9.83827 85.7961 10.1493C86.541 10.4684 87.2476 10.8822 87.9607 11.2692C88.6903 11.6651 89.42 12.0613 90.1496 12.4571C90.9556 12.8946 91.7612 13.3318 92.5672 13.7693C92.6146 14.0116 92.6598 14.2536 92.7008 14.4956L92.7011 14.4952ZM92.498 13.4177L88.3755 11.1804C87.6603 10.7922 86.9519 10.3825 86.2166 10.0371C85.4986 9.70011 84.7403 9.47057 84.0124 9.1588C83.2012 8.81156 82.421 8.38758 81.6797 7.90182C81.6793 7.90182 81.679 7.90145 81.6786 7.90108C81.6401 7.54874 81.5966 7.19712 81.5525 6.84513C81.5288 6.65836 81.5055 6.47122 81.4825 6.28371C84.2241 7.54727 86.9508 8.84446 89.6744 10.1497C90.4503 10.5214 91.2259 10.8942 92.0019 11.2667C92.039 11.2846 92.075 11.2842 92.1061 11.2729C92.2057 11.9911 92.3559 12.7057 92.4987 13.4177H92.498ZM81.4786 1.67723C82.0744 2.21745 82.7991 2.5888 83.5121 2.9448C85.0774 3.72626 86.601 4.5852 88.1094 5.47338C88.8398 5.90359 89.5769 6.32611 90.2934 6.78007C90.9471 7.19419 91.5853 7.66131 92.0916 8.25599C92.1047 8.27134 92.1192 8.2845 92.1351 8.29547C92.1001 8.46177 92.0715 8.62918 92.0499 8.79804C92.0234 9.00748 92.0068 9.21655 91.9983 9.42562C90.5701 8.70813 89.161 7.95006 87.7738 7.15143C86.3707 6.34366 84.9898 5.49495 83.6329 4.60604C82.8641 4.10237 82.1033 3.58591 81.3504 3.05738C81.3334 3.04532 81.3164 3.03837 81.3002 3.03545C81.3256 2.58003 81.3811 2.1268 81.479 1.67723H81.4786ZM81.2871 3.34833C82.5987 4.26721 83.9347 5.14918 85.294 5.99131C86.6717 6.84477 88.0727 7.65802 89.4945 8.42961C90.3005 8.86676 91.1132 9.29038 91.9319 9.70084C91.952 9.71108 91.9722 9.71546 91.9913 9.71583C91.9888 10.1435 92.0192 10.5697 92.0697 10.9944C89.3112 9.66978 86.5526 8.34518 83.7817 7.04872C83.0033 6.68468 82.2242 6.32246 81.4436 5.96353C81.3419 5.09472 81.2638 4.21896 81.2871 3.34833ZM0.431092 24.4045C0.47738 20.3718 0.523314 16.3396 0.569602 12.3069C0.614477 8.40219 0.591863 4.47994 1.02471 0.594958C1.05333 0.61104 1.08619 0.619081 1.12011 0.614695C1.9282 0.508333 2.74018 0.435597 3.55393 0.397218C4.98461 0.3296 6.41282 0.389908 7.84139 0.47763C9.06642 0.552925 10.4805 0.634433 11.7624 0.635895C11.7815 0.643205 11.8031 0.647957 11.8264 0.649053L16.8756 0.689624C20.6564 0.811704 24.4382 0.901253 28.2204 0.956445C33.8615 1.03868 39.5033 1.04673 45.1444 0.980203C46.1098 0.968872 47.0751 0.954983 48.0404 0.939266L54.7981 0.993361C54.8716 0.991168 54.9232 0.954983 54.9536 0.904908C55.1401 0.910391 55.327 0.915508 55.5136 0.920625C55.5882 0.922818 55.6627 0.924646 55.7373 0.926473C55.7465 0.94219 55.7581 0.956445 55.7716 0.968141C55.8468 1.0343 55.956 1.01968 56.021 0.947307C56.0249 0.942921 56.0291 0.938535 56.033 0.934149C56.3966 0.943652 56.7602 0.95279 57.1234 0.961927C57.187 1.01493 57.2711 1.01127 57.3351 0.967044C59.6053 1.0215 64.1468 1.08766 64.1468 1.08766C64.1468 1.08766 64.562 1.09059 65.2242 1.09497L65.7305 1.07962C67.1665 1.04855 68.4406 1.16003 69.8763 1.11763C70.9285 1.12056 75.2019 0.948769 75.9969 0.94548C78.5579 0.934149 77.8611 1.0767 80.4218 1.02882C80.69 1.11105 80.9504 1.22107 81.1984 1.36764C81.1475 1.56757 81.1041 1.76933 81.0695 1.97292C80.7578 3.78949 81.0606 5.63275 81.28 7.43908C81.3952 8.38611 81.4762 9.33351 81.4829 10.2886C81.4903 11.2787 81.4373 12.2678 81.3684 13.2554C81.2306 15.2372 81.0822 17.2146 81.043 19.2011C81.0037 21.1887 81.0415 23.1778 81.1564 25.1618C81.214 26.1556 81.2917 27.148 81.3871 28.1385C81.4511 28.8037 81.4037 30.6353 81.3044 31.3012C74.4178 31.2654 67.5311 31.2332 60.6445 31.2051V31.2131C53.2317 31.1766 45.8197 31.1437 38.4073 31.1163C25.7233 31.0691 13.0394 31.0359 0.355123 31.0158L0.430739 24.4041L0.431092 24.4045ZM86.4689 37.7758L86.3689 37.7418L84.5417 37.5613C83.1595 37.4092 82.003 37.2875 81.332 37.2301C80.1098 37.1665 78.2837 37.1727 76.128 37.2075L75.134 37.1738C69.2403 37.0529 63.3458 37.168 57.4538 37.3347C57.3916 37.2912 57.3005 37.2948 57.2379 37.3409C56.6054 37.3588 55.9726 37.3774 55.3401 37.3964C55.3338 37.3124 55.2899 37.2385 55.1995 37.2206C55.114 37.2038 54.9981 37.2674 54.9924 37.3665C54.9917 37.38 54.991 37.3935 54.9907 37.407C54.6737 37.4165 54.3568 37.426 54.0398 37.4359C54.0108 37.3668 53.9285 37.3204 53.86 37.3263C53.7847 37.3325 53.7352 37.3818 53.7123 37.4461C53.3706 37.4567 53.0293 37.467 52.6876 37.4776C52.6752 37.4465 36.1483 36.8244 36.0773 36.8251C33.9983 36.8463 31.9192 36.8679 29.8405 36.8891C26.1389 36.9271 22.4372 36.9717 18.7356 36.9955C15.0178 37.0192 11.2992 37.0167 7.58168 36.9388C7.57108 36.9388 7.56154 36.9395 7.552 36.9406C7.11562 36.4808 6.67924 36.0207 6.24287 35.5609C6.02768 35.3339 5.81073 35.1248 5.54678 34.9589C5.29661 34.8017 5.02949 34.6741 4.77296 34.5287C4.26097 34.2381 3.76558 33.9175 3.28362 33.5769C2.31865 32.8948 1.40596 32.1382 0.495047 31.382C7.51666 31.3933 14.5383 31.4083 21.5599 31.4281C34.2332 31.4632 46.9066 31.5114 59.5799 31.5735L68.7742 31.6901L74.1376 31.6254L76.788 31.6814L76.7368 31.6273C78.1152 31.6342 79.4932 31.6404 80.8716 31.6477C80.8705 31.6521 81.0641 31.6719 81.0631 31.6762C81.0525 31.7329 81.3613 31.9745 81.4677 32.0143C82.1842 32.2815 82.681 32.3594 83.4443 32.8795C84.2206 33.4084 85.0315 33.8814 85.8509 34.3379C86.6657 34.7918 87.4886 35.2308 88.2967 35.6968C89.173 36.2027 90.0175 36.759 90.8627 37.3153C91.4736 37.7174 92.0884 38.115 92.7223 38.4783C90.8708 38.2751 88.5645 38.0116 86.4689 37.7762V37.7758ZM93.3569 38.4323C92.4432 37.9458 91.5782 37.3734 90.7143 36.8036C89.879 36.2528 89.0373 35.7158 88.1677 35.222C87.3565 34.7615 86.5328 34.3232 85.7201 33.8653C84.9195 33.4139 84.1273 32.9431 83.3768 32.4098C82.7429 31.9595 82.0881 31.9635 81.5341 31.745C81.603 31.5443 81.5952 31.6481 81.6306 31.4383C81.6945 31.0585 81.7281 30.4693 81.7394 29.8487C83.3171 30.2778 84.8583 30.837 86.3519 31.5154C87.9476 32.2402 89.5221 33.0169 91.104 33.7721C91.9012 34.1526 92.6979 34.5331 93.4951 34.9132C93.5513 36.0901 93.552 37.2685 93.3573 38.4319L93.3569 38.4323Z" fill="#0F0703"/>
  </g>
  <defs>
    <clipPath id="clip0_14_692">
      <rect width="94" height="39" fill="white"/>
    </clipPath>
  </defs>
</svg>