<svg width="610" height="96" viewBox="0 0 610 96" fill="none" xmlns="http://www.w3.org/2000/svg">
<path d="M78.7821 43.3557C78.7821 53.7299 74.2966 64.1041 66.7876 71.3457C59.1808 78.7837 49.8196 82.8941 39.2886 82.8941C35.3887 82.8941 31.8774 82.8941 28.3675 82.7959C24.5641 82.6978 20.9563 82.5027 17.0551 82.2082C11.3017 81.6204 7.20615 78.8806 5.2562 74.3788C3.98839 71.4426 3.69624 61.1666 3.5984 51.3801C3.50057 38.0697 2.3306 14.0919 7.98613 8.41591C11.7895 4.59872 18.9072 3.81592 25.734 3.81592C54.5987 3.81592 78.7821 14.1901 78.6843 41.7887C78.6843 42.2783 78.7821 42.8648 78.7821 43.3544V43.3557ZM37.1429 29.6539C36.0708 29.6539 35.0952 29.9471 34.6073 30.5349C33.9252 31.4159 33.7295 32.9815 33.7295 34.6453C33.7295 36.7005 34.0217 38.8539 34.3152 39.4403C34.803 40.5163 36.2651 40.9091 37.8251 40.9091C39.2872 40.9091 40.945 40.5177 42.2128 39.6367C43.4806 38.7557 44.4563 36.6023 44.4563 34.9385C44.4563 30.1435 40.165 29.6539 37.1429 29.6539Z" fill="#5B2B13"/>
<path d="M125.003 24.4673C125.003 29.7519 120.712 34.9397 114.959 34.9397C114.569 34.9397 114.081 34.9397 113.593 34.8415C112.521 34.7433 111.35 34.4501 110.18 34.4501C108.912 34.4501 107.84 34.7433 107.45 35.9175C107.352 36.2107 107.254 36.5053 107.254 36.7003C107.254 37.7763 108.424 38.0709 109.594 38.0709C109.984 38.0709 110.276 38.0709 110.666 37.9727C111.642 37.8745 112.616 37.7763 113.592 37.7763C114.664 37.7763 115.639 37.8745 116.712 37.9727C120.222 38.3641 122.563 39.8329 123.831 42.4745C124.513 43.9433 124.806 45.5089 124.806 46.9763C124.806 50.8904 122.563 54.6094 119.639 55.9799C118.371 56.5677 117.103 56.7627 115.737 56.7627C113.884 56.7627 112.032 56.3713 110.276 55.9799C109.886 55.8818 109.496 55.8818 109.106 55.8818C107.838 55.8818 106.863 56.3713 106.863 57.6437C106.863 59.5039 108.325 60.0903 109.983 60.0903C110.665 60.0903 111.348 59.9922 112.03 59.894C112.908 59.7958 113.883 59.6976 114.664 59.6976C120.417 59.6976 124.415 63.0252 124.415 68.9944C124.415 69.1908 124.317 69.484 124.317 69.679C123.829 79.2704 114.858 82.9894 104.814 82.9894C102.474 82.9894 100.036 82.7931 97.5981 82.4017C93.6982 81.8139 89.6991 80.5415 86.677 77.8999C79.7537 71.8324 78.8759 58.3257 78.8759 45.6031V39.927C78.9737 30.0424 80.338 21.7234 86.287 17.0252C90.4804 13.6977 97.4038 12.2302 104.619 12.2302C107.057 12.2302 109.593 12.3284 112.03 12.7198C114.76 13.1112 117.492 13.7958 119.832 15.2646C122.757 17.1248 124.707 20.451 124.903 23.8768C124.903 24.0732 125.001 24.2682 125.001 24.4646L125.003 24.4673Z" fill="#5B2B13"/>
<path d="M176.881 39.3433C176.296 39.3433 175.809 39.3433 175.224 39.2451C172.688 38.8537 170.25 37.4832 167.715 37.1899C167.227 37.0918 166.739 37.0918 166.253 37.0918C160.791 37.0918 156.111 41.3003 154.746 45.6058C154.258 46.9764 154.064 48.3456 154.064 49.7162C154.064 54.3162 156.404 58.3284 159.329 60.2854C160.207 60.8732 162.353 61.5578 164.107 61.5578C165.473 61.5578 166.74 61.1664 166.935 59.894C166.935 59.6976 167.033 59.5026 167.033 59.3062C167.033 57.251 164.595 57.251 162.937 56.7614C160.694 56.1737 159.231 53.8252 159.231 51.1836C159.231 50.2044 159.427 49.3234 159.817 48.3456C161.085 45.2144 164.01 42.8646 167.424 41.8868C169.276 41.3972 171.129 41.2022 173.079 41.2022C174.152 41.2022 175.323 41.3003 176.395 41.3003C181.856 41.3003 186.146 42.6709 189.072 45.6071C192.095 48.5433 193.655 53.0451 193.655 59.1125C193.655 62.0487 193.265 64.9849 192.193 67.7248C189.073 75.8474 181.368 81.3284 172.689 83.775C168.692 84.9492 164.693 85.4388 160.891 85.4388C145.776 85.4388 133.489 76.9247 128.418 66.3542C126.078 61.5592 125.103 56.2732 125.103 50.8904C125.103 47.7592 125.493 44.6266 126.078 41.4954C129.588 23.585 141.583 12.1348 161.672 12.1348H163.232C172.399 12.428 181.662 14.6796 185.563 20.9434C186.831 22.9986 187.417 25.347 187.417 27.6967C187.417 31.4157 185.857 35.1347 183.321 37.1899C181.565 38.6587 179.225 39.3433 176.885 39.3433H176.881Z" fill="#5B2B13"/>
<path d="M239.875 24.4673C239.875 29.7519 235.584 34.9397 229.83 34.9397C229.44 34.9397 228.953 34.9397 228.465 34.8415C227.393 34.7433 226.221 34.4501 225.051 34.4501C223.784 34.4501 222.711 34.7433 222.321 35.9175C222.224 36.2107 222.126 36.5053 222.126 36.7003C222.126 37.7763 223.296 38.0709 224.466 38.0709C224.856 38.0709 225.148 38.0709 225.538 37.9727C226.513 37.8745 227.488 37.7763 228.463 37.7763C229.536 37.7763 230.511 37.8745 231.583 37.9727C235.093 38.3641 237.435 39.8329 238.702 42.4745C239.384 43.9433 239.678 45.5089 239.678 46.9763C239.678 50.8904 237.435 54.6094 234.51 55.9799C233.242 56.5677 231.975 56.7627 230.609 56.7627C228.757 56.7627 226.903 56.3713 225.148 55.9799C224.758 55.8818 224.368 55.8818 223.978 55.8818C222.71 55.8818 221.734 56.3713 221.734 57.6437C221.734 59.5039 223.197 60.0903 224.854 60.0903C225.536 60.0903 226.22 59.9922 226.902 59.894C227.78 59.7958 228.756 59.6976 229.536 59.6976C235.289 59.6976 239.287 63.0252 239.287 68.9944C239.287 69.1908 239.189 69.484 239.189 69.679C238.701 79.2704 229.73 82.9894 219.685 82.9894C217.345 82.9894 214.908 82.7931 212.47 82.4017C208.57 81.8139 204.571 80.5415 201.549 77.8999C194.625 71.8324 193.748 58.3257 193.748 45.6031V39.927C193.845 30.0424 195.21 21.7234 201.159 17.0252C205.352 13.6977 212.275 12.2302 219.491 12.2302C221.929 12.2302 224.464 12.3284 226.902 12.7198C229.632 13.1112 232.363 13.7958 234.703 15.2646C237.629 17.1248 239.579 20.451 239.774 23.8768C239.774 24.0732 239.872 24.2682 239.872 24.4646L239.875 24.4673Z" fill="#5B2B13"/>
<path d="M264.936 64.5922C264.936 68.018 264.838 71.4424 264.254 74.4768C263.182 79.6632 259.866 83.2854 253.723 83.2854C246.41 83.2854 242.118 78.7836 240.948 72.4216C240.071 67.332 239.973 61.4596 239.973 55.6868V47.0745C239.973 32.0022 240.655 13.4072 255.087 13.4072C259.475 13.4072 262.108 14.4832 264.838 16.8329C271.47 22.509 270.787 34.547 276.637 40.4194C276.735 40.5175 276.833 40.6157 276.929 40.6157C277.612 40.6157 277.905 37.7777 277.905 36.7003V35.7212C277.905 32.5899 278.003 29.5556 278.003 26.3262C278.003 21.2366 278.783 17.5176 281.806 14.7777C283.756 13.0158 286.39 12.1348 288.925 12.1348C292.631 12.1348 296.922 13.9949 299.164 16.7348C302.09 20.3556 302.87 24.5642 302.87 30.2402V31.2194C302.87 36.2108 302.968 41.3972 302.772 46.2917C302.576 52.4574 302.284 58.3297 301.504 64.299C300.139 73.8904 297.506 83.6768 286.39 83.6768C277.321 83.6768 274.005 80.251 271.08 71.0524C270.104 68.1162 268.446 61.5592 266.398 59.4058C266.203 59.2094 266.008 59.0144 265.813 59.0144C265.227 59.0144 264.837 60.0904 264.837 61.461L264.935 63.9076V64.5922H264.936Z" fill="#5B2B13"/>
<path d="M358.159 82.7958C357.573 82.7958 357.087 82.7958 356.501 82.6976C350.747 82.1098 346.36 78.1958 344.018 73.889C341.093 68.5062 340.509 60.97 340.509 53.1406C340.509 49.0302 340.704 44.9198 340.801 40.9076C341.093 28.4782 340.801 14.5814 348.114 8.02438C350.844 5.57777 354.453 4.40356 358.061 4.40356C361.961 4.40356 365.862 5.77415 368.592 8.51397C371.127 10.9606 372.395 17.4194 373.175 21.2366C373.467 21.0402 373.761 20.747 374.053 20.4538C379.806 13.995 385.755 5.18637 392.581 4.79497H393.459C400.674 4.79497 407.599 10.6674 408.477 17.8121C408.575 18.3999 408.575 18.9864 408.575 19.5741C408.575 25.0551 405.357 30.4379 401.163 36.2121L395.508 43.7483C401.749 52.0673 407.6 60.7777 408.477 65.7691C408.672 66.7483 408.672 67.8243 408.672 68.9003C408.672 72.9125 407.405 77.2193 404.089 80.4487C401.066 83.3849 397.36 84.5591 393.85 84.5591C391.315 84.5591 388.975 83.9714 386.927 82.9935C380.588 79.7641 377.468 73.3039 372.69 68.8021C372.69 76.9248 365.961 82.7971 358.16 82.7971L358.159 82.7958Z" fill="#5B2B13"/>
<path d="M439.584 12.0381C448.555 12.0381 457.526 15.2675 464.255 21.1399C471.374 27.4037 475.957 36.6037 476.347 46.0969V47.4675C476.347 56.8625 472.349 66.2588 465.62 72.8158C458.697 79.5692 449.14 83.2882 439.487 83.2882H438.707C429.834 83.0919 421.057 79.7656 414.426 73.795C407.795 67.8258 403.505 59.3104 402.821 50.405C402.723 49.524 402.723 48.7412 402.723 47.8602C402.723 38.9548 406.233 30.2444 412.28 23.7842C418.911 16.7376 428.468 12.4308 438.121 12.0394H439.584V12.0381ZM438.706 34.9399C437.536 34.9399 436.366 35.3313 435.292 36.2123C434.219 37.0933 433.634 38.4638 433.634 39.7362C433.634 40.9104 434.122 42.0847 435 42.9656C435.976 43.9448 437.438 44.6294 438.998 44.6294C440.07 44.6294 441.143 44.3362 442.118 43.6503C443.288 42.7693 444.166 41.3987 444.166 39.8331C444.166 37.0933 441.532 34.9399 438.704 34.9399H438.706Z" fill="#5B2B13"/>
<path d="M499.945 64.5922C499.945 68.018 499.847 71.4424 499.263 74.4768C498.191 79.6632 494.875 83.2854 488.732 83.2854C481.418 83.2854 477.127 78.7836 475.957 72.4216C475.079 67.332 474.982 61.4596 474.982 55.6868V47.0745C474.982 32.0022 475.664 13.4072 490.096 13.4072C494.484 13.4072 497.117 14.4832 499.847 16.8329C506.478 22.509 505.796 34.547 511.646 40.4194C511.744 40.5175 511.842 40.6157 511.938 40.6157C512.62 40.6157 512.914 37.7777 512.914 36.7003V35.7212C512.914 32.5899 513.012 29.5556 513.012 26.3262C513.012 21.2366 513.792 17.5176 516.815 14.7777C518.765 13.0158 521.398 12.1348 523.934 12.1348C527.64 12.1348 531.931 13.9949 534.173 16.7348C537.099 20.3556 537.879 24.5642 537.879 30.2402V31.2194C537.879 36.2108 537.976 41.3972 537.781 46.2917C537.585 52.4574 537.293 58.3297 536.513 64.299C535.147 73.8904 532.515 83.6768 521.398 83.6768C512.33 83.6768 509.014 80.251 506.088 71.0524C505.113 68.1162 503.455 61.5592 501.407 59.4058C501.211 59.2094 501.017 59.0144 500.821 59.0144C500.236 59.0144 499.846 60.0904 499.846 61.461L499.944 63.9076V64.5922H499.945Z" fill="#5B2B13"/>
<path d="M589.853 39.3433C589.267 39.3433 588.781 39.3433 588.195 39.2451C585.66 38.8537 583.222 37.4832 580.686 37.1899C580.199 37.0918 579.711 37.0918 579.224 37.0918C573.763 37.0918 569.083 41.3003 567.718 45.6058C567.23 46.9764 567.035 48.3456 567.035 49.7162C567.035 54.3162 569.375 58.3284 572.301 60.2854C573.179 60.8732 575.324 61.5578 577.079 61.5578C578.444 61.5578 579.712 61.1664 579.906 59.894C579.906 59.6976 580.004 59.5026 580.004 59.3062C580.004 57.251 577.566 57.251 575.909 56.7614C573.665 56.1737 572.203 53.8252 572.203 51.1836C572.203 50.2044 572.399 49.3234 572.789 48.3456C574.057 45.2144 576.982 42.8646 580.396 41.8868C582.249 41.3972 584.101 41.2022 586.051 41.2022C587.123 41.2022 588.295 41.3003 589.367 41.3003C594.828 41.3003 599.118 42.6709 602.043 45.6071C605.067 48.5433 606.627 53.0451 606.627 59.1125C606.627 62.0487 606.237 64.9849 605.165 67.7248C602.045 75.8474 594.34 81.3284 585.661 83.775C581.663 84.9492 577.664 85.4388 573.862 85.4388C558.748 85.4388 546.461 76.9247 541.39 66.3542C539.05 61.5592 538.074 56.2732 538.074 50.8904C538.074 47.7592 538.464 44.6266 539.05 41.4954C542.56 23.585 554.554 12.1348 574.642 12.1348H576.202C585.369 12.428 594.632 14.6796 598.533 20.9434C599.801 22.9986 600.387 25.347 600.387 27.6967C600.387 31.4157 598.827 35.1347 596.291 37.1899C594.536 38.6587 592.196 39.3433 589.856 39.3433H589.853Z" fill="#5B2B13"/>
</svg>
