<svg xmlns="http://www.w3.org/2000/svg" width="34" height="33" viewBox="0 0 34 33" fill="none">
  <path d="M28.1951 21.3394C28.1876 21.1064 27.9754 19.176 27.103 15.6765V15.6756C26.6179 13.771 25.9294 11.9132 25.0543 10.1475C25.009 10.0628 24.9428 9.99075 24.856 9.93459C23.9949 9.4203 23.0796 8.98837 22.1369 8.65049C20.3591 8.00236 19.5209 7.99487 19.4882 7.99487C19.2162 7.99487 18.9769 8.1961 18.9382 8.46892L18.8589 9.01972C17.432 8.88916 15.9887 8.88916 14.5617 9.01972L14.4829 8.46939C14.4446 8.19797 14.2109 7.99487 13.9403 7.99487H13.9352C13.8442 7.99487 12.999 8.01312 11.2851 8.64535C10.3438 8.98556 9.43087 9.41983 8.56648 9.93881C8.48624 9.99075 8.42 10.0633 8.37196 10.1531C7.49964 11.9132 6.81111 13.7715 6.3255 15.6775C5.41726 19.3571 5.24886 21.1326 5.233 21.3258H5.23254C5.21901 21.4756 5.26846 21.6263 5.37202 21.7447C6.30218 22.7316 7.40401 23.5052 8.64718 24.0443C9.7784 24.5272 10.9698 24.8543 12.1962 25.0181C12.213 25.02 12.2298 25.0204 12.2465 25.0204C12.4425 25.0204 12.6258 24.9151 12.7233 24.7439L13.6068 23.2253C14.6321 23.3928 15.6789 23.4724 16.7136 23.4691C17.7529 23.4738 18.7969 23.3905 19.8217 23.222L20.7053 24.7429C20.8023 24.9119 20.9837 25.0176 21.1792 25.0186L21.2403 25.0167C22.4574 24.8557 23.6483 24.5309 24.7809 24.0503C26.0231 23.5112 27.125 22.7377 28.0603 21.7456C28.1578 21.6342 28.2067 21.4868 28.1955 21.3389L28.1951 21.3394ZM13.4044 19.9149C12.2097 19.9149 11.2375 18.8367 11.2375 17.5114C11.2375 16.1862 12.2097 15.1061 13.4044 15.1061C14.599 15.1061 15.5693 16.1852 15.5693 17.5114C15.5693 18.8377 14.5981 19.9149 13.4044 19.9149ZM20.0242 19.9149C18.8305 19.9149 17.8592 18.8367 17.8592 17.5114C17.8592 16.1862 18.8305 15.1061 20.0242 15.1061C21.2179 15.1061 22.191 16.1852 22.191 17.5114C22.191 18.8377 21.2188 19.9149 20.0242 19.9149Z" fill="#5B2B13"/>
</svg>