<svg width="40" height="19" viewBox="0 0 40 19" fill="none" xmlns="http://www.w3.org/2000/svg">
<g id="Group">
<path id="Vector" d="M33.6496 6.81258C33.555 6.74827 33.415 6.75367 33.3194 6.82177C32.352 6.84825 31.3841 6.87581 30.4167 6.90391C30.4075 6.77962 30.3399 6.6699 30.2021 6.64396C30.0714 6.6191 29.8935 6.71314 29.8849 6.8596C29.8838 6.87959 29.8827 6.89959 29.8822 6.91958C29.3974 6.93363 28.9127 6.94769 28.4279 6.96228C28.3836 6.86014 28.2577 6.7915 28.1528 6.79961C28.0377 6.8088 27.9626 6.88176 27.9275 6.97687C27.4049 6.99254 26.8823 7.00768 26.3597 7.02335C26.3413 6.97741 26.3218 6.93201 26.3024 6.88608C26.3018 6.88554 26.3013 6.88446 26.3007 6.88338C26.2959 6.82285 26.2689 6.76178 26.2116 6.70989C25.7873 6.32294 25.3496 5.95113 24.8967 5.59769C23.0603 4.16392 21.0023 3.01117 18.8206 2.19458C16.567 1.35096 14.161 0.827824 11.7507 0.768376C10.3855 0.734869 9.03824 0.922936 7.74282 1.35907C6.55819 1.75845 5.41625 2.3259 4.36295 2.99712C3.14211 3.77426 1.89047 4.85405 1.18898 6.18189C1.14251 6.10947 0.991724 6.59857 0.991724 6.59857C0.790142 7.07469 0.662057 7.58 0.631253 8.11232C0.593963 8.75166 0.795004 9.30884 1.2668 9.74713C1.52081 9.98276 1.80832 10.1881 2.09961 10.3865C2.14339 10.4805 2.23904 10.5562 2.34281 10.5508C2.49791 10.6551 2.65193 10.7588 2.80109 10.8664C3.88898 11.6522 4.9531 12.4693 6.03343 13.2654C6.85597 13.8717 7.69201 14.4673 8.55076 15.0255C8.56049 15.0353 8.57022 15.045 8.58156 15.0536C8.64696 15.1044 8.71505 15.145 8.78531 15.1769C10.0045 15.9551 11.2718 16.6528 12.6175 17.1932C13.7486 17.6477 14.9295 17.9941 16.1384 18.1649C17.4733 18.353 18.8066 18.2822 20.142 18.1384C22.669 17.8671 25.2247 17.5921 27.6697 16.8684C28.8748 16.5117 30.0449 16.0356 31.1333 15.4049C32.2017 14.785 33.168 14.0084 34.0592 13.1567C35.9183 11.3809 37.4704 9.29533 39.0782 7.29735C39.0998 7.27086 39.1247 7.21574 39.1247 7.21574L33.6496 6.81258Z" fill="#0F0703"/>
<path id="Vector_2" d="M11.6485 14.3192C12.5386 14.0841 13.4044 13.7204 14.0983 13.1011C14.7473 12.5217 15.1408 11.7489 15.2191 10.8821C15.3029 9.95252 15.0424 9.01379 14.7382 8.14585C14.4182 7.23144 14.0588 6.3127 13.6243 5.44584C13.4065 5.01133 13.152 4.59196 12.852 4.2088C12.7883 4.12719 12.7245 4.03586 12.638 3.97641C12.6251 3.96776 12.5862 3.94506 12.5775 3.9429C12.5753 3.9456 12.5726 3.94938 12.5694 3.95317C12.5202 4.01694 12.4873 4.11476 12.451 4.1915C12.4008 4.29634 12.3489 4.40011 12.2954 4.50333C11.4783 6.07275 10.2553 7.4314 8.78258 8.41228C7.98545 8.94353 7.11643 9.35588 6.20904 9.66015C5.21194 9.99467 4.17971 10.2114 3.14749 10.4049C3.12695 10.4086 3.10641 10.4124 3.08588 10.4162C3.78412 10.9199 4.47695 11.429 5.16654 11.9456C6.43494 12.8957 7.70928 13.848 9.04523 14.7024C9.15818 14.7435 9.28897 14.7418 9.41435 14.7316C9.65322 14.7121 9.89047 14.6651 10.1266 14.6262C10.6374 14.543 11.1475 14.4516 11.6485 14.3192Z" fill="#C7A279"/>
<path id="Vector_3" d="M24.3822 15.1352C25.6625 13.8025 26.3818 12.0072 26.4061 10.16C26.418 9.27046 26.277 8.38847 25.9819 7.55296C25.8327 7.49243 25.7792 7.30545 25.8354 7.17304C25.8214 7.13954 25.8079 7.10549 25.7933 7.07198C25.7911 7.06712 25.7895 7.06171 25.7879 7.05631C24.139 5.56471 22.2729 4.3282 20.2592 3.38568C18.2175 2.4302 16.0358 1.78276 13.8016 1.47958C12.4948 1.30178 11.1632 1.22773 9.85266 1.4077C8.58913 1.58118 7.37316 2.01407 6.23014 2.57179C4.35754 3.48621 2.37739 4.8 1.52026 6.78231C1.31328 7.26113 1.14844 7.81021 1.16574 8.33659C1.17546 8.63383 1.25437 8.90513 1.43812 9.14184C1.60511 9.35693 1.83317 9.52285 2.05367 9.67849C2.19526 9.77901 2.33686 9.87953 2.47845 9.98059C4.46833 9.61958 6.48846 9.21534 8.2265 8.12798C9.75863 7.1698 11.0286 5.7998 11.8496 4.18823C11.9506 3.98989 12.0257 3.74237 12.1792 3.57808C12.3981 3.34407 12.7137 3.36947 12.9596 3.54349C13.1574 3.68292 13.306 3.9045 13.4455 4.09852C13.5984 4.31091 13.7378 4.53249 13.867 4.76055C14.3766 5.65821 14.7549 6.63369 15.1159 7.59836C15.4645 8.53169 15.7726 9.52122 15.7726 10.527C15.772 11.5062 15.4532 12.4396 14.7928 13.1713C14.148 13.8852 13.285 14.3651 12.3797 14.6672C11.8577 14.8412 11.3183 14.9618 10.7773 15.0623C10.5033 15.1136 10.2283 15.159 9.95318 15.2028C9.92724 15.2071 9.90076 15.2114 9.87482 15.2158C10.3996 15.5276 10.9351 15.8221 11.4842 16.0929C13.6638 17.1684 16.0271 17.8434 18.4731 17.7336C18.7741 17.7201 19.0752 17.7001 19.3762 17.6758C19.3767 17.5494 19.4535 17.4245 19.6161 17.4115C21.4114 17.2656 23.1349 16.4334 24.3822 15.1352Z" fill="#C7A279"/>
<path id="Vector_4" d="M37.4526 7.84697C37.5228 7.96857 37.5882 8.09449 37.6363 8.22527C37.9027 7.89399 38.1692 7.5627 38.4362 7.23141C38.0011 7.24168 37.5655 7.25195 37.1305 7.26276C37.2061 7.46272 37.3396 7.65241 37.4526 7.84697Z" fill="#C7A279"/>
<path id="Vector_5" d="M36.924 8.01612C36.7813 7.78103 36.637 7.54216 36.5689 7.27734C36.1998 7.28653 35.8312 7.29626 35.4621 7.30599C35.6567 7.6951 35.8518 8.08367 36.0453 8.47332C36.2458 8.87703 36.4122 9.2883 36.4176 9.7374C36.6646 9.43475 36.9089 9.13103 37.1531 8.82731C37.1521 8.80623 37.1537 8.78461 37.1591 8.76353C37.1931 8.62248 37.1818 8.5425 37.1304 8.40685C37.0764 8.26472 37.0078 8.15393 36.924 8.01612Z" fill="#C7A279"/>
<path id="Vector_6" d="M27.5659 14.1241C28.4268 12.9443 28.3236 11.356 28.1496 9.98655C28.0453 9.16671 27.9118 8.34633 27.8999 7.51947C27.4524 7.53244 27.0049 7.54596 26.5574 7.55947C27.1033 9.23157 27.0655 11.075 26.4861 12.7368C25.8468 14.5705 24.4838 16.108 22.775 17.0203C22.5231 17.1549 22.2653 17.2759 22.0021 17.384C22.1156 17.3699 22.2286 17.3559 22.3415 17.3418C23.1327 17.2435 23.9239 17.1343 24.7102 16.997C24.7146 16.9722 24.7232 16.9484 24.7373 16.9257C25.1085 16.3431 25.6203 15.894 26.1532 15.4633C26.6574 15.0542 27.1795 14.6537 27.5659 14.1241Z" fill="#C7A279"/>
<path id="Vector_7" d="M35.8788 9.81256C35.9156 9.37805 35.6843 8.9549 35.4967 8.5793C35.2871 8.15992 35.0774 7.74054 34.8682 7.32117C34.504 7.33089 34.1403 7.34062 33.776 7.35089C33.8344 8.15559 33.9441 8.95598 34.1051 9.74609C34.2516 10.4632 34.4959 11.1772 34.5386 11.9089C35.0779 11.3355 35.5929 10.7372 36.0955 10.1298H36.095C35.9383 10.1001 35.8664 9.95902 35.8788 9.81256Z" fill="#C7A279"/>
<path id="Vector_8" d="M30.3432 9.08619C30.1875 8.54197 29.9865 8.01397 29.9108 7.46002C29.4206 7.47407 28.9299 7.48867 28.4397 7.50326C28.4651 9.01971 28.8867 10.5102 28.7899 12.0342C28.7445 12.7509 28.5792 13.4794 28.2182 14.1063C27.8642 14.7213 27.341 15.1936 26.7963 15.6373C26.3299 16.0172 25.8278 16.3891 25.4441 16.8592C25.6203 16.8241 25.7959 16.7874 25.9716 16.7484C26.6666 16.5944 27.3562 16.4112 28.0323 16.1886C28.0306 16.1226 28.0523 16.0556 28.0939 15.9983C29.5222 14.0274 31.0722 11.6316 30.3432 9.08619Z" fill="#C7A279"/>
<path id="Vector_9" d="M31.1322 14.5122C31.5797 13.7161 31.7694 12.8222 31.8948 11.9262C32.0293 10.9637 32.1628 9.98008 32.1515 9.00676C32.145 8.46417 32.0861 7.9232 31.9315 7.40222C31.4349 7.41627 30.9382 7.43032 30.4415 7.44491C30.5129 7.92698 30.7058 8.39716 30.8404 8.85815C31.0306 9.50937 31.0982 10.1698 31.049 10.8459C30.9544 12.1467 30.4313 13.3772 29.7671 14.4846C29.4742 14.9721 29.1542 15.4428 28.8251 15.9065C29.0315 15.827 29.2369 15.7438 29.4401 15.6552C30.0308 15.399 30.5988 15.1007 31.1436 14.764C31.0987 14.6878 31.0874 14.5916 31.1322 14.5122Z" fill="#C7A279"/>
<path id="Vector_10" d="M33.8614 11.0658C33.7571 10.6259 33.6452 10.1881 33.5555 9.74444C33.3972 8.95919 33.2902 8.16421 33.2334 7.36545C32.9854 7.37247 32.7368 7.3795 32.4887 7.38598C32.7411 8.34417 32.7178 9.34235 32.6254 10.3249C32.5346 11.2917 32.4401 12.2791 32.2044 13.2232C32.1126 13.5918 31.9953 13.9549 31.8418 14.303C32.0682 14.143 32.2904 13.9771 32.5076 13.8036C33.0324 13.3848 33.5274 12.9341 34.0014 12.4617C33.9938 12.4277 33.9922 12.3915 33.996 12.3553C34.0403 11.9235 33.9603 11.4852 33.8614 11.0658Z" fill="#C7A279"/>
</g>
</svg>
