<svg width="80" height="24" viewBox="0 0 80 24" fill="none" xmlns="http://www.w3.org/2000/svg">
<g id="Group">
<path id="Vector" d="M0.741064 19.5407C0.742686 19.5407 0.89617 19.8168 0.987503 19.9482C1.82139 21.142 3.26975 21.7835 4.62516 22.1731C6.01786 22.5736 7.49432 22.6898 8.93457 22.5455C10.371 22.4017 11.7886 22.0007 13.0786 21.3511C13.6385 21.069 14.1762 20.7458 14.6815 20.3762C14.6994 20.3783 14.7177 20.3789 14.7356 20.3778C14.8637 20.3675 14.9555 20.2697 14.9782 20.1514C15.3668 19.8487 15.7765 19.5164 16.0677 19.111C16.1807 19.4272 16.3358 19.7287 16.5325 20.0049C16.9935 20.6507 17.6399 21.1339 18.3257 21.5187C19.0531 21.9272 19.8405 22.2542 20.629 22.5239C21.0722 22.6757 21.524 22.8038 21.9893 22.8654C22.4805 22.9303 22.9777 22.9211 23.4701 22.8795C24.4391 22.7968 25.4216 22.6806 26.3733 22.4806C27.2547 22.2958 28.101 22.0056 28.9057 21.6008C30.4081 20.8453 31.7236 19.7877 32.9341 18.6295C32.9698 18.77 33.019 18.9073 33.0887 19.0386C33.2941 19.4277 33.6356 19.7169 33.968 19.9952C34.3095 20.2811 34.6516 20.5664 35.0024 20.841C35.6941 21.3836 36.4248 21.8926 37.2225 22.2677C38.0288 22.646 38.8994 22.8714 39.7874 22.9368C41.5962 23.0697 43.3953 22.6233 45.0306 21.8694C46.6973 21.1009 48.2084 20.0519 49.7038 18.9981C49.8016 19.2089 49.9216 19.4099 50.0567 19.5985C50.402 20.0806 50.8376 20.4935 51.2791 20.8864C51.7704 21.323 52.2806 21.7386 52.8442 22.0791C54.8957 23.3183 57.4357 23.2075 59.6991 22.7298C60.9507 22.466 62.2164 22.138 63.3238 21.477C64.0193 21.0625 64.6413 20.5302 65.1872 19.9303C65.6855 19.9444 66.1843 19.9584 66.6826 19.9714C66.7966 19.9746 66.9106 19.9773 67.0247 19.9801C67.0387 20.0033 67.0565 20.0244 67.0771 20.0417C67.1922 20.1395 67.3586 20.1179 67.4586 20.0109C67.4651 20.0044 67.471 19.9984 67.477 19.9919C68.0331 20.006 68.5892 20.0195 69.1453 20.0325C69.2426 20.1108 69.3712 20.1054 69.469 20.04C72.9413 20.1206 79.8875 20.2184 79.8875 20.2184L79.5368 19.6747C79.5368 19.6747 79.5908 19.5164 79.5692 19.4304C79.44 18.9235 79.2925 18.4214 79.126 17.9253C78.4391 15.8798 77.4383 13.9375 76.1915 12.1773C74.9436 10.416 73.4434 8.82767 71.7524 7.48632C70.0359 6.12605 68.1152 5.00573 66.067 4.22642C64.8472 3.76273 63.5772 3.43036 62.2678 3.38227C61.5728 3.35633 60.8788 3.4255 60.1882 3.49738C59.471 3.57196 58.7533 3.64708 58.0362 3.7222C57.7097 3.75625 57.3817 3.78273 57.0569 3.82704C56.8532 3.85515 56.6505 3.89622 56.4608 3.97134C56.3446 3.63843 56.1717 3.32336 55.955 3.04504C55.4805 2.43651 54.833 1.99011 54.1575 1.63126C53.4095 1.2335 52.6091 0.914648 51.8088 0.640649C50.9122 0.333683 49.9929 0.108322 49.0434 0.0645471C48.063 0.0191507 47.0956 0.207762 46.1591 0.482302C45.2582 0.746574 44.3702 1.06813 43.4915 1.39617C42.6641 1.70584 41.847 2.05226 41.0828 2.49866C40.3305 2.93803 39.6506 3.48657 39.0767 4.14266C38.9972 4.23345 38.92 4.32586 38.8443 4.4199C38.9265 4.30316 38.8924 4.15941 38.7978 4.05889C38.5438 3.79029 38.2725 3.53845 37.985 3.30661C36.7836 2.33923 35.3228 1.70044 33.8031 1.4486C32.2272 1.18703 30.6119 1.3524 29.1257 1.93877C27.4963 2.58242 25.9809 3.58547 24.666 4.73605C24.1791 5.16191 23.7143 5.61317 23.2766 6.0893C23.0755 5.84988 22.8534 5.62777 22.6124 5.42889C21.4478 4.46908 19.9389 4.03673 18.45 3.98053C17.5437 3.94648 16.6368 4.05078 15.7478 4.22426C14.8745 4.3945 14.0022 4.61229 13.1537 4.88089C12.7408 5.01167 12.3377 5.16786 11.954 5.36998C11.5816 5.56508 11.2433 5.80935 10.9261 6.08389C10.237 6.67837 9.59606 7.33283 8.93835 7.96136C7.59484 9.24651 6.25132 10.5311 4.9078 11.8163C4.24685 12.4486 3.58483 13.0803 2.92442 13.7137C2.3348 14.2785 1.74789 14.8567 1.28528 15.5339C0.832398 16.197 0.490304 16.9558 0.419508 17.7637C0.382758 18.188 0.421668 18.6063 0.536781 19.004L0.741064 19.5407Z" fill="#0F0703"/>
<path id="Vector_2" d="M9.58146 14.8854C9.9776 15.0026 10.3699 15.1556 10.6612 15.4301C11.0147 14.6027 11.0368 13.6753 10.8877 12.788C10.8039 12.2886 10.6796 11.7617 10.4575 11.3039C10.3608 11.105 10.224 10.917 10.036 10.7959C9.82411 10.6592 9.56849 10.6051 9.32313 10.5668C8.62273 10.4565 7.90666 10.4344 7.19923 10.4662C7.16626 10.4679 7.136 10.4641 7.10844 10.4565L6.39074 11.1429C5.73952 11.7655 5.08884 12.388 4.43762 13.0106C3.8734 13.55 3.2973 14.0801 2.75146 14.6384C5.00345 14.1617 7.37109 14.2304 9.58146 14.8854Z" fill="#C7A279"/>
<path id="Vector_3" d="M26.2398 14.1336C26.7154 14.1931 27.2996 14.2666 27.686 14.5708C27.76 14.0698 27.7227 13.551 27.6589 13.0527C27.6125 12.6907 27.5509 12.3302 27.4876 11.9708C27.4249 11.6152 27.3509 11.2617 27.2277 10.9218C26.7997 9.74313 25.6707 9.01895 24.452 8.89033C23.6441 8.80494 22.8259 8.98166 22.0838 9.29673C21.9493 9.35402 21.7844 9.26755 21.7363 9.13514C21.7245 9.10272 21.7196 9.07029 21.7207 9.03841C21.4748 9.41995 21.2332 9.80474 20.9824 10.1836C20.4896 10.9283 19.9389 11.6195 19.3514 12.2907C18.8445 12.8695 18.3132 13.451 17.842 14.0715C20.6068 13.4737 23.4576 13.7867 26.2398 14.1336Z" fill="#C7A279"/>
<path id="Vector_4" d="M53.9337 10.0171C54.1688 9.89987 54.418 9.80529 54.6698 9.72693C55.0686 9.60317 55.4794 9.50644 55.889 9.42699C56.343 9.3389 56.8142 9.29188 57.2725 9.37403C58.1675 9.53454 58.7965 10.2252 59.2467 10.9705C59.7207 11.7546 60.0282 12.6226 60.2303 13.5137C60.4605 14.5265 60.5719 15.5582 60.674 16.5904C60.7021 16.8747 60.3438 16.9639 60.1817 16.7672C59.8785 16.3991 59.3094 16.3278 58.8506 16.3116C58.1518 16.2873 57.4482 16.3045 56.7494 16.3208C55.2735 16.3548 53.7986 16.444 52.3297 16.5867C51.598 16.658 50.8679 16.7428 50.1388 16.8412C50.0594 17.1049 50.0015 17.3746 49.9799 17.6481C49.887 18.8203 50.7857 19.7195 51.591 20.4389C52.0584 20.8561 52.5416 21.2663 53.0793 21.5911C53.5511 21.8759 54.0613 22.098 54.592 22.2455C55.6772 22.5471 56.8126 22.5763 57.9275 22.4644C59.1024 22.3471 60.2795 22.0942 61.4036 21.7354C62.5147 21.3803 63.5162 20.8155 64.3598 20.006C64.5014 19.8698 64.637 19.7298 64.7683 19.5861C64.7802 19.4936 64.8359 19.4131 64.9407 19.392C66.2751 17.8469 67.0673 15.9106 67.6737 13.972C67.6018 13.9277 67.5483 13.8531 67.5467 13.7661C67.5348 13.2241 67.4294 12.6999 67.2295 12.1962C67.1003 11.8714 67.6099 11.6871 67.7386 12.0108C67.852 12.2967 67.9385 12.5928 67.9969 12.895C68.0758 12.6231 68.1536 12.3502 68.2314 12.0778C68.2714 11.9373 68.3952 11.8335 68.5481 11.8622C68.6822 11.8876 68.8038 12.0378 68.7638 12.1789C68.42 13.384 68.0698 14.6043 67.618 15.7792C67.7326 15.709 67.8434 15.6333 67.9477 15.5479C68.1909 15.3485 68.3633 15.081 68.5184 14.8113C68.8443 14.2433 69.1896 13.6591 69.3145 13.0084C69.3804 12.6663 69.9127 12.7663 69.8468 13.11C69.7079 13.8326 69.3339 14.4887 68.9659 15.1167C68.7762 15.4404 68.5638 15.7371 68.2736 15.9792C67.9877 16.2175 67.651 16.3856 67.3208 16.5526C67.3132 16.5564 67.3057 16.5596 67.2976 16.5623C66.9782 17.2935 66.6096 18.001 66.1664 18.6689C66.7825 18.4279 67.3646 18.1231 67.7694 17.5686C68.0401 17.1979 68.2574 16.7963 68.5687 16.4553C68.88 16.1138 69.2366 15.8171 69.5474 15.4755C69.856 15.1367 70.1213 14.7508 70.1894 14.2882C70.2397 13.9434 70.772 14.0445 70.7217 14.3898C70.5796 15.3626 69.7841 15.9835 69.1388 16.6407C68.9643 16.8185 68.8011 17.0049 68.6573 17.2087C68.5243 17.3978 68.4054 17.5962 68.2752 17.787C68.0104 18.1761 67.6791 18.4987 67.2749 18.7408C66.8225 19.0121 66.3269 19.1942 65.8314 19.3688C65.7676 19.3915 65.7092 19.3899 65.659 19.3731C65.6509 19.3839 65.6422 19.3942 65.6336 19.4045C66.1735 19.4196 66.7139 19.4337 67.2538 19.4477C68.3206 18.4003 69.6906 17.6864 70.6304 16.5088C70.8887 16.1851 71.099 15.8317 71.247 15.4447C71.2995 15.308 71.4843 15.2583 71.6086 15.3183C71.7491 15.3858 71.788 15.5425 71.7351 15.6798C71.1498 17.2054 69.7155 18.1172 68.4892 19.0856C68.3319 19.2099 68.1774 19.3369 68.0266 19.4682C68.4363 19.4785 68.8464 19.4882 69.2561 19.4974C70.17 18.5927 71.2789 17.8351 71.9474 16.7164C72.0226 16.591 72.1685 16.5223 72.309 16.5899C72.4317 16.6488 72.5111 16.825 72.4355 16.9514C71.8204 17.981 70.8795 18.7106 70.0154 19.5153C70.3143 19.5217 70.6126 19.5282 70.9114 19.5347C70.9239 19.5201 70.9374 19.5066 70.952 19.4936C71.2838 19.2083 71.6162 18.9224 71.948 18.6371C72.242 18.3841 72.5338 18.1301 72.7694 17.8205C72.8581 17.7037 73.044 17.6983 73.151 17.7897C73.2677 17.8891 73.2704 18.0545 73.1818 18.1712C72.9283 18.5046 72.6095 18.7786 72.2933 19.051C72.0993 19.218 71.9048 19.385 71.7107 19.552C73.8979 19.5969 76.0855 19.6336 78.2732 19.6617C78.5424 19.665 78.812 19.6682 79.0812 19.6714C79.0714 19.6552 79.0633 19.6374 79.0585 19.6179C78.544 17.5989 77.729 15.6603 76.6535 13.8758C75.577 12.0902 74.2519 10.4565 72.7241 9.03788C71.2022 7.62519 69.4863 6.42489 67.6251 5.50237C66.5945 4.99166 65.519 4.54742 64.4052 4.25505C63.7907 4.094 63.1627 3.97997 62.5282 3.93511C61.8765 3.88917 61.2226 3.93889 60.574 4.00375C59.8871 4.07184 59.2013 4.14642 58.515 4.2183C58.1756 4.25397 57.8362 4.28909 57.4968 4.32476C57.2266 4.35287 56.9477 4.36854 56.6899 4.46311C56.1619 4.65659 56.1425 5.24566 56.0176 5.7153C55.8566 6.32004 55.6204 6.90209 55.3453 7.4636C54.9189 8.3337 54.4277 9.17785 53.9337 10.0171Z" fill="#C7A279"/>
<path id="Vector_5" d="M3.57673 21.2295C3.62483 21.1328 3.68104 21.0398 3.74805 20.9496C3.77453 20.9134 3.81074 20.8885 3.85127 20.8734C3.92531 20.7831 3.97233 20.6777 3.97341 20.5691C3.97449 20.4226 4.06637 20.2897 4.22147 20.2773C4.35766 20.2665 4.51439 20.3783 4.51331 20.5253C4.51114 20.8145 4.41224 21.0966 4.19607 21.2965C4.17553 21.3154 4.15338 21.3316 4.13068 21.3452C4.11446 21.3711 4.09717 21.3997 4.08096 21.4295C4.31713 21.5159 4.55654 21.5938 4.79865 21.6619C4.81595 21.1955 4.96889 20.7539 5.24235 20.3697C5.3272 20.2502 5.51959 20.2497 5.6239 20.3389C5.74333 20.4405 5.73955 20.601 5.6547 20.7204C5.43529 21.0295 5.32504 21.4116 5.33801 21.7894C5.33801 21.7926 5.33801 21.7959 5.33801 21.7991C5.6493 21.8694 5.96437 21.9256 6.28106 21.9677C6.20216 21.784 6.18757 21.5873 6.20918 21.383C6.23296 21.1565 6.32538 20.9371 6.32862 20.7085C6.33078 20.5621 6.42104 20.4291 6.57668 20.4167C6.71179 20.4059 6.87067 20.5178 6.86851 20.6648C6.86473 20.8939 6.80961 21.1057 6.76583 21.3284C6.73665 21.4759 6.70854 21.6521 6.79339 21.7872C6.84527 21.8699 6.84744 21.9542 6.81988 22.0261C7.10847 22.0499 7.39814 22.0629 7.68727 22.0639C7.89371 21.6608 7.89047 21.1998 7.6797 20.7928C7.61269 20.6626 7.71645 20.4907 7.84129 20.4453C7.99369 20.3902 8.12124 20.4767 8.18879 20.6069C8.41577 21.0463 8.44387 21.5829 8.28282 22.0504C8.58493 22.0358 8.88649 22.0093 9.18589 21.9715C9.22588 21.5478 9.17616 21.1203 9.04376 20.7156C8.93513 20.3843 9.44422 20.1984 9.55284 20.5302C9.69714 20.9717 9.75605 21.4289 9.73227 21.8888C10.0744 21.8288 10.4132 21.7532 10.7488 21.6624C10.6867 21.1722 10.4894 20.7177 10.1797 20.3302C10.0884 20.2157 10.1322 20.033 10.2468 19.953C10.3732 19.8644 10.5326 19.9054 10.624 20.02C10.9666 20.4497 11.1882 20.9658 11.273 21.5067C11.4611 21.4462 11.6476 21.3803 11.8324 21.31C11.8972 21.2852 11.9621 21.2598 12.0264 21.2338C11.974 20.7637 11.8167 20.314 11.5606 19.9146C11.3725 19.6212 11.8162 19.3104 12.0048 19.6044C12.2799 20.033 12.4625 20.5107 12.542 21.0112C12.8214 20.8825 13.0965 20.7431 13.3651 20.5913C13.3397 20.2762 13.2802 19.8541 12.9468 19.7876C12.6058 19.7195 12.7052 19.1867 13.0484 19.2553C13.3256 19.311 13.5618 19.4969 13.698 19.7433C13.7925 19.9141 13.8428 20.0968 13.8731 20.2848C14.0606 20.1643 14.2443 20.0379 14.4227 19.9054C14.3584 19.485 14.1465 19.1034 13.812 18.8284C13.5423 18.6062 13.8936 18.1939 14.1627 18.4155C14.5129 18.7035 14.7686 19.097 14.895 19.5293C15.0318 19.4126 15.1652 19.2926 15.2939 19.1683C15.3009 19.1618 15.3074 19.1548 15.3144 19.1483C15.2458 19.1202 15.1885 19.0624 15.155 18.9894C14.9842 18.6198 14.7772 18.2701 14.5405 17.9383C14.3373 17.654 14.7821 17.3443 14.9847 17.6281C15.2414 17.988 15.4614 18.3712 15.6489 18.7716C15.7413 18.6435 15.817 18.5052 15.8602 18.3533C15.864 18.3398 15.8689 18.3268 15.8743 18.3139C15.8532 18.1555 15.8419 17.9961 15.8397 17.8361C15.563 17.7097 15.2863 17.5827 15.0091 17.4562C14.6918 17.3114 14.9264 16.8228 15.2441 16.9682C15.4528 17.0633 15.6608 17.159 15.8694 17.2541C15.9451 16.5542 16.1596 15.8733 16.4677 15.2399C16.8482 14.4579 17.3783 13.7553 17.9355 13.0917C18.51 12.4069 19.1239 11.7557 19.6833 11.058C20.2659 10.3311 20.7571 9.54155 21.2602 8.75901C21.7466 8.00294 22.2584 7.26849 22.8405 6.58268C22.8643 6.55458 22.8891 6.52702 22.9129 6.49892C22.0595 5.43751 20.7544 4.84087 19.433 4.61875C17.7766 4.34043 16.0797 4.65118 14.4746 5.07001C13.6947 5.27321 12.8819 5.47426 12.1702 5.86445C11.4498 6.25896 10.8742 6.85614 10.2862 7.41873L7.67646 9.91445C8.21095 9.91229 8.74598 9.94472 9.2756 10.0139C9.8717 10.0917 10.4402 10.2814 10.7904 10.8024C11.1125 11.2818 11.2536 11.8876 11.3709 12.4448C11.4935 13.0284 11.5433 13.6218 11.5016 14.2168C11.4568 14.8583 11.2817 15.4955 10.9558 16.0527C10.832 16.2645 10.5613 16.2413 10.457 16.0284C10.2862 15.6793 9.82144 15.5193 9.45935 15.4128C8.91459 15.2529 8.35903 15.128 7.7986 15.0383C6.69287 14.861 5.56877 14.8237 4.45332 14.9248C3.82587 14.9816 3.20221 15.081 2.58936 15.2269C2.47479 15.2545 2.35427 15.2291 2.28348 15.1399C1.88464 15.5922 1.52687 16.0813 1.27935 16.6342C0.989141 17.2816 0.841062 18.0355 1.01562 18.7354C1.32475 19.9681 2.45966 20.7464 3.57673 21.2295Z" fill="#C7A279"/>
<path id="Vector_6" d="M21.8763 8.79793C21.8833 8.79415 21.8904 8.7909 21.8979 8.78766C23.276 8.20237 24.9379 8.11644 26.2452 8.93142C26.831 9.29675 27.3071 9.79665 27.6055 10.4225C27.9432 11.1304 28.0421 11.9497 28.1578 12.7182C28.2896 13.5964 28.3377 14.4903 28.0459 15.3426C27.9719 15.5593 27.6054 15.5333 27.5471 15.3177C27.3904 14.74 26.6186 14.7259 26.1382 14.6665C25.4448 14.58 24.7514 14.4957 24.0559 14.4271C22.6805 14.2909 21.2948 14.2174 19.9145 14.319C19.1428 14.3757 18.3743 14.4871 17.6236 14.6751C17.5545 14.6924 17.4831 14.6892 17.4215 14.6649C17.0697 15.2015 16.7768 15.7728 16.592 16.3991C16.3785 17.1233 16.2915 17.9156 16.4882 18.6544C16.6806 19.3775 17.1183 19.9773 17.6928 20.447C17.9522 20.6594 18.2311 20.8442 18.5213 21.0101C18.5354 20.9469 18.5705 20.8896 18.6278 20.8555C18.7829 20.7631 18.9066 20.6275 18.9553 20.4718C18.9991 20.3324 19.1163 20.227 19.272 20.2562C19.4028 20.2811 19.5314 20.4324 19.4876 20.5729C19.4001 20.8523 19.239 21.0971 18.9964 21.2619C19.2093 21.3668 19.4255 21.4646 19.6422 21.5581C19.7297 21.5959 19.8173 21.6332 19.9054 21.67C20.1086 21.3387 20.301 21.0009 20.4815 20.6572C20.6431 20.3492 21.1321 20.5821 20.9695 20.8923C20.7944 21.2263 20.6079 21.5538 20.4112 21.8753C20.6598 21.971 20.9116 22.0591 21.1667 22.1342C21.1775 22.1066 21.1943 22.0791 21.2175 22.0526C21.5169 21.7121 21.6791 21.2949 21.7045 20.8431C21.7126 20.6966 21.8914 20.6032 22.0212 20.6275C22.1806 20.6577 22.2449 20.7977 22.2368 20.9442C22.2098 21.4257 22.0282 21.8926 21.7353 22.2747C21.8666 22.3012 21.9985 22.3234 22.1314 22.3396C22.2908 22.3596 22.4513 22.3693 22.6118 22.3725C22.607 22.3558 22.6032 22.3379 22.6016 22.3185C22.5475 21.7672 22.5324 21.2133 22.5567 20.6594C22.5632 20.5134 22.6459 20.3805 22.8048 20.3675C22.9366 20.3567 23.1031 20.4686 23.0966 20.6156C23.0723 21.169 23.0874 21.7229 23.1415 22.2747C23.1447 22.3061 23.1431 22.3347 23.1371 22.3606C23.2631 22.3531 23.3895 22.3433 23.5149 22.332C23.6862 22.3163 23.8581 22.298 24.0294 22.279C24.0089 21.6024 23.9883 20.9253 23.9678 20.2486C23.9635 20.1022 24.0645 19.9692 24.2159 19.9568C24.3564 19.9454 24.5034 20.0579 24.5077 20.2049C24.5277 20.8745 24.5482 21.5446 24.5682 22.2142C24.6904 22.1991 24.8125 22.1834 24.9346 22.1677C25.0795 22.1493 25.2238 22.1293 25.3681 22.1077C25.2027 21.4192 25.1038 20.7177 25.0822 20.0098C25.0778 19.8633 25.1794 19.7304 25.3302 19.7179C25.4707 19.7066 25.6177 19.819 25.6221 19.966C25.6431 20.6588 25.7339 21.3479 25.9009 22.0202C26.1128 21.9818 26.3235 21.9391 26.5327 21.8905C26.4965 21.8002 26.5149 21.6948 26.5759 21.6105C26.7402 21.3846 26.9342 21.1279 26.931 20.8355C26.9272 20.4886 26.7802 20.1276 26.6624 19.806C26.5419 19.4785 27.051 19.2931 27.1715 19.6206C27.3152 20.0119 27.4855 20.4551 27.4698 20.8777C27.4579 21.1949 27.3228 21.4684 27.1542 21.7251C27.299 21.6813 27.4428 21.6343 27.5855 21.5824C27.8081 21.5019 28.0264 21.4133 28.2421 21.3171C28.2334 21.2819 28.2313 21.243 28.2388 21.2003C28.3604 20.494 28.0043 19.8098 27.6827 19.2056C27.6141 19.0764 27.6195 18.9192 27.7497 18.8284C27.8584 18.7527 28.0578 18.7657 28.127 18.8954C28.4826 19.5639 28.8414 20.2805 28.7993 21.049C29.0635 20.9123 29.3224 20.7653 29.5764 20.6096C29.671 20.2465 29.5851 19.8925 29.4527 19.5498C29.384 19.3731 29.3051 19.1996 29.2235 19.0289C29.17 18.9175 29.1057 18.7895 29.0003 18.7333C28.6933 18.57 28.9263 18.0804 29.2354 18.2447C29.6245 18.4517 29.7926 18.9375 29.9461 19.3239C30.0606 19.612 30.1476 19.92 30.159 20.2303C30.3984 20.0654 30.6335 19.8936 30.8637 19.7158C30.8502 19.6736 30.8453 19.6271 30.8502 19.5807C30.9178 18.9267 30.5913 18.2674 30.046 17.8886C29.9261 17.8048 29.9271 17.6102 30.0152 17.5065C30.1179 17.386 30.2763 17.3919 30.3968 17.4757C30.9934 17.8902 31.3485 18.5776 31.3906 19.2915C31.5322 19.1732 31.6728 19.0532 31.8106 18.9316C31.8662 18.8824 31.9214 18.8332 31.9765 18.7835C31.9613 18.7641 31.9478 18.7414 31.9376 18.7154C31.8479 18.4944 31.8938 18.255 31.83 18.0366C31.79 17.9004 31.6846 17.7626 31.5895 17.6632C31.3198 17.3822 31.0134 17.1357 30.8648 16.7639C30.7351 16.4397 31.2447 16.2548 31.3739 16.5785C31.4252 16.7077 31.5382 16.8493 31.6387 16.9514C31.776 17.0914 31.9197 17.2233 32.05 17.3697C32.171 17.5059 32.277 17.6627 32.3348 17.8367C32.3937 18.0134 32.3748 18.2069 32.4072 18.3863C32.5018 18.2971 32.5958 18.2069 32.6893 18.1166C32.7342 18.0728 32.7893 18.0426 32.8466 18.0302C32.8385 17.9102 32.8336 17.7897 32.8282 17.6702C32.8179 17.4319 32.8114 17.1936 32.8114 16.9558C32.7228 17.0185 32.6018 17.0314 32.4947 16.9385C32.2132 16.6942 31.9554 16.4229 31.7236 16.1311C31.6322 16.0165 31.676 15.8338 31.7906 15.7538C31.917 15.6658 32.0765 15.7063 32.1678 15.8209C32.3645 16.0684 32.5823 16.2943 32.8195 16.5023C32.8228 16.4094 32.8271 16.3164 32.8331 16.2235C32.892 15.2907 33.1503 14.419 33.5859 13.5932C34.0263 12.7588 34.5495 11.9676 35.0207 11.1499C35.5131 10.2955 35.9865 9.42916 36.4399 8.55311C36.8355 7.78786 37.2111 7.01234 37.6316 6.26006C37.9845 5.62883 38.3709 5.01058 38.8232 4.44474C38.7346 4.54364 38.5449 4.57715 38.4455 4.47176C37.4457 3.41251 36.1611 2.63591 34.764 2.22464C33.3773 1.81607 31.8781 1.73987 30.4741 2.07656C28.8268 2.47216 27.3001 3.3736 25.9566 4.38421C24.6374 5.37591 23.4684 6.5627 22.4946 7.89541C22.28 8.18994 22.0757 8.49259 21.8763 8.79793Z" fill="#C7A279"/>
<path id="Vector_7" d="M56.6597 15.782C57.3855 15.7647 58.1162 15.7436 58.842 15.7728C59.2667 15.7901 59.7002 15.8457 60.0736 16.0262C59.9185 14.5433 59.7029 13.042 59.0333 11.6957C58.7042 11.0343 58.2361 10.302 57.5271 10.0064C57.1531 9.85071 56.7359 9.85287 56.3403 9.90097C55.9523 9.94853 55.5686 10.0404 55.1908 10.1404C54.4688 10.3317 53.6533 10.6116 53.2679 11.2839C53.2312 11.3488 53.1734 11.3974 53.108 11.4212C52.547 12.3605 51.9655 13.2868 51.4013 14.2244C51.0813 14.7562 50.776 15.2983 50.5198 15.8646C50.4598 15.9971 50.4009 16.1316 50.3453 16.2684C51.6845 16.0938 53.0296 15.9641 54.378 15.8803C55.1373 15.8328 55.8982 15.7998 56.6597 15.782Z" fill="#C7A279"/>
<path id="Vector_8" d="M37.4889 7.69057C37.1365 8.38232 36.7836 9.07408 36.4167 9.75827C37.0814 9.21351 37.9461 9.0022 38.7816 8.89141C39.7063 8.76927 40.6856 8.71037 41.5951 8.95897C42.3868 9.17568 43.1499 9.62694 43.5904 10.3376C43.839 10.7386 43.979 11.1883 44.1119 11.6374C44.2584 12.1318 44.4016 12.6274 44.4962 13.1349C44.6842 14.1417 44.6215 15.2129 44.0352 16.0819C43.939 16.2246 43.6925 16.1975 43.6066 16.0613C43.3375 15.6355 42.6798 15.6009 42.209 15.5236C41.5249 15.4112 40.8374 15.3177 40.1478 15.2437C38.7924 15.0977 37.4105 14.9902 36.047 15.0594C35.2866 15.0977 34.5316 15.2075 33.8075 15.449C33.6702 15.495 33.5578 15.4339 33.4973 15.3388C33.3416 16.0662 33.3351 16.8169 33.3654 17.5594C33.3821 17.9658 33.3649 18.4274 33.567 18.7943C33.7637 19.1515 34.1063 19.4066 34.4133 19.6628C35.7001 20.7382 37.0533 21.8278 38.72 22.225C38.9178 22.272 39.1167 22.3104 39.3166 22.3401C39.255 22.0996 39.2248 21.8521 39.2318 21.6029C39.2361 21.4565 39.3226 21.3241 39.4799 21.3111C39.6133 21.3003 39.776 21.4122 39.7717 21.5592C39.7636 21.8364 39.7992 22.1039 39.889 22.3666C39.8933 22.379 39.896 22.3909 39.8987 22.4028C40.1522 22.4201 40.4062 22.4249 40.6602 22.4185C40.6569 22.4044 40.6548 22.3898 40.6542 22.3752C40.6445 22.0547 40.6131 21.7359 40.5607 21.4197C40.5364 21.2754 40.672 21.1392 40.8088 21.1279C40.965 21.1155 41.0763 21.2311 41.1006 21.376C41.1536 21.6921 41.1849 22.011 41.1941 22.3314C41.1946 22.3504 41.1936 22.3693 41.1903 22.3876C41.4892 22.3612 41.787 22.3196 42.082 22.2644C41.8405 21.9148 41.7032 21.4954 41.6962 21.0701C41.6935 20.9236 41.7918 20.7907 41.9442 20.7782C42.0831 20.7669 42.2334 20.8793 42.2361 21.0263C42.2426 21.3997 42.3604 21.7424 42.5873 22.0391C42.6144 22.0742 42.6306 22.1099 42.6381 22.1445C42.8592 22.0904 43.0781 22.0293 43.2942 21.9618C43.117 21.7732 42.964 21.5689 42.843 21.3387C42.7787 21.2171 42.7241 21.0928 42.6749 20.9641C42.629 20.8426 42.5857 20.7355 42.4976 20.6383C42.3993 20.5296 42.4555 20.3372 42.5646 20.261C42.6971 20.1686 42.8435 20.2194 42.9419 20.3281C43.117 20.5215 43.1748 20.7869 43.2834 21.0177C43.3834 21.23 43.5272 21.4295 43.6909 21.597C43.7455 21.6527 43.779 21.724 43.7833 21.7959C44.0357 21.7045 44.2843 21.6051 44.5297 21.4992C44.5259 21.4954 44.5221 21.4911 44.5183 21.4867C44.2654 21.1971 44.0789 20.8496 43.9757 20.4794C43.9363 20.3389 43.9925 20.1848 44.1373 20.1319C44.2665 20.0849 44.4454 20.1519 44.4848 20.2935C44.5772 20.6253 44.7361 20.9171 44.9625 21.1765C44.989 21.2068 45.0036 21.2425 45.0096 21.2808C45.1852 21.1971 45.3598 21.1101 45.5327 21.0198C45.182 20.6339 44.9528 20.1811 44.8415 19.6682C44.8107 19.525 44.9577 19.3872 45.0895 19.3764C45.2517 19.3634 45.35 19.4807 45.3814 19.6244C45.4657 20.0141 45.6711 20.3891 45.9472 20.675C45.9726 20.701 45.9932 20.7307 46.0088 20.7615C46.1937 20.6583 46.3769 20.5518 46.559 20.4426C46.5579 20.4421 46.5574 20.4415 46.5563 20.4405C46.1045 20.0616 45.7732 19.5428 45.6321 18.9694C45.597 18.8273 45.6462 18.676 45.7937 18.6219C45.9197 18.576 46.1061 18.6408 46.1412 18.7835C46.2618 19.2726 46.5212 19.7033 46.9076 20.0276C46.9594 20.0708 46.9876 20.1211 46.9984 20.173C47.2502 20.0146 47.4999 19.8525 47.7474 19.6876C47.341 19.2494 47.0081 18.764 46.7465 18.2252C46.6827 18.0934 46.7811 17.9242 46.9081 17.8777C47.0578 17.8232 47.1913 17.9075 47.2556 18.0393C47.4804 18.5025 47.7798 18.937 48.1327 19.312C48.1549 19.3358 48.1738 19.3618 48.1884 19.3893C48.2657 19.3364 48.3435 19.2834 48.4202 19.2299C48.6121 19.0975 48.8029 18.9645 48.9936 18.8305C48.4262 18.49 47.9376 18.0355 47.5653 17.4865C47.3691 17.1973 47.8133 16.8877 48.0095 17.1763C48.3505 17.6789 48.7985 18.1004 49.3276 18.4003C49.3768 18.4284 49.4168 18.4679 49.4433 18.5138C49.4644 18.4987 49.486 18.4836 49.507 18.469C49.5087 18.4679 49.5098 18.4673 49.5114 18.4663C49.4654 18.2847 49.4379 18.0988 49.4325 17.9096C49.426 17.6735 49.4487 17.44 49.4914 17.2098C49.4195 17.2443 49.332 17.2449 49.2509 17.2141C48.8304 17.0568 48.471 16.7931 48.1733 16.4602C48.0754 16.351 48.1306 16.1597 48.2403 16.083C48.3721 15.9905 48.5197 16.0408 48.6175 16.15C48.8531 16.4132 49.1568 16.6029 49.486 16.7255C49.5281 16.7412 49.5616 16.7698 49.5865 16.805C49.5941 16.7774 49.6022 16.7498 49.6103 16.7223C49.5946 16.692 49.5849 16.6591 49.5822 16.625C49.573 16.5104 49.6351 16.4153 49.7281 16.3661C49.7713 16.2467 49.8167 16.1278 49.8637 16.0111C50.3436 14.82 51.0597 13.7461 51.7315 12.6577C52.4659 11.4682 53.1631 10.2565 53.8581 9.04381C54.4898 7.94079 55.1665 6.82371 55.4913 5.58342C55.6107 5.12675 55.6756 4.6155 55.9993 4.26963C55.9858 4.24963 55.9744 4.22693 55.9658 4.20045C55.5026 2.79965 54.0126 2.09871 52.7448 1.57341C51.9201 1.23185 51.0776 0.927048 50.201 0.749786C49.3017 0.56766 48.3997 0.550906 47.4956 0.710874C46.5606 0.876247 45.6608 1.19726 44.7675 1.51072C43.966 1.79174 43.164 2.07601 42.3901 2.42783C41.6329 2.77209 40.9061 3.18876 40.2656 3.72325C39.6441 4.24207 39.1297 4.88086 38.6843 5.55424C38.2358 6.23734 37.8591 6.96477 37.4889 7.69057Z" fill="#C7A279"/>
<path id="Vector_9" d="M37.8764 14.5308C39.3318 14.5973 40.7828 14.7443 42.2215 14.9767C42.7333 15.0594 43.3585 15.121 43.7817 15.4539C44.0746 14.8475 44.0962 14.1293 44.0049 13.4727C43.9417 13.0171 43.8222 12.5729 43.6942 12.1319C43.5715 11.7098 43.4585 11.2769 43.2715 10.8781C42.9597 10.2122 42.3377 9.76585 41.6524 9.53832C40.8326 9.26541 39.9419 9.30648 39.0956 9.39889C38.239 9.49293 37.3511 9.66641 36.6788 10.2431C36.5675 10.3382 36.3794 10.2874 36.3016 10.176C36.2745 10.1377 36.26 10.0977 36.2556 10.0571C36.247 10.0728 36.2383 10.089 36.2297 10.1047C35.7714 10.9429 35.2947 11.7714 34.7997 12.5885C34.3544 13.3241 33.8696 14.0677 33.614 14.8962C33.6086 14.914 33.6032 14.9324 33.5978 14.9508C33.6059 14.947 33.6145 14.9437 33.6237 14.9405C34.9932 14.4822 36.4486 14.4655 37.8764 14.5308Z" fill="#C7A279"/>
</g>
</svg>
