<svg xmlns="http://www.w3.org/2000/svg" width="20" height="21" viewBox="0 0 20 21" fill="none">
  <path d="M19.8021 7.94334C19.5916 7.2183 19.0911 6.75057 18.4148 6.4553C17.7522 6.16613 17.0501 6.0977 16.3368 6.09208C15.9281 6.0888 15.519 6.07661 15.1103 6.07193C14.3469 6.06208 13.583 6.05412 12.8196 6.04662C11.8672 6.03771 10.9154 6.03022 9.9631 6.02178C9.96029 6.02178 9.95795 6.02178 9.95514 6.02178C9.94951 6.02178 9.94389 6.02178 9.93873 6.02178C9.92514 6.02178 9.91155 6.02178 9.89796 6.02037C9.86562 6.01709 9.83516 6.01569 9.80611 6.01569C9.53382 6.01569 9.39228 6.15488 9.29621 6.35829C9.05016 6.87805 8.79803 7.39499 8.55386 7.91616C8.36077 8.32906 8.17472 8.74524 7.98772 9.16096C7.91086 9.33249 7.83353 9.50402 7.76699 9.67978C7.70231 9.85037 7.7712 9.95864 7.94882 9.97926C8.0599 9.99191 8.1719 10.0018 8.28391 10.0018C9.01173 10.0027 9.73956 10.0027 10.4678 10.0027C10.9979 10.0027 11.5284 10.0027 12.0599 10.0027C12.065 10.0027 12.0697 10.0027 12.0749 10.0032C12.4339 10.0322 12.7966 10.0477 13.1551 10.0955C13.5502 10.148 13.8023 10.3336 13.8886 10.687C13.9457 10.9227 13.8998 11.1491 13.8098 11.3642C13.62 11.8179 13.4246 12.2687 13.2217 12.7163C13.0515 13.0922 12.8645 13.4601 12.6902 13.8341C12.3373 14.5915 11.99 15.3512 11.6362 16.1086C11.4005 16.6133 11.1554 17.1129 10.9206 17.6182C10.6173 18.2706 10.3198 18.9262 10.0207 19.5805C9.85531 19.9423 9.69222 20.3056 9.52632 20.6669C9.49023 20.7452 9.5057 20.7803 9.59662 20.7827C9.7808 20.7873 9.96498 20.8023 10.1492 20.8038C11.3845 20.8117 12.6194 20.8173 13.8548 20.8244C13.8572 20.8244 13.859 20.8244 13.8609 20.8244C14.2968 20.8244 14.69 20.568 14.8699 20.1706C15.0982 19.6667 15.3306 19.1648 15.564 18.6628C15.9694 17.7902 16.3771 16.9184 16.7839 16.0462C17.096 15.3774 17.4091 14.7091 17.7208 14.0399C17.8993 13.656 18.0783 13.2726 18.2522 12.8869C18.5507 12.2242 18.8544 11.5638 19.1384 10.895C19.3657 10.3594 19.5851 9.81897 19.7735 9.26922C19.9211 8.83851 19.93 8.38389 19.8021 7.94381V7.94334Z" fill="#5B2B13"/>
  <path d="M11.0586 14.6809C11.2661 14.204 11.5051 13.7406 11.7281 13.2703C11.9559 12.7905 12.1812 12.3094 12.4057 11.8277C12.431 11.7739 12.4559 11.7196 12.4803 11.6649C12.6259 11.3368 12.4507 11.0672 12.0911 11.0658C10.8718 11.0634 9.65242 11.063 8.4331 11.063C8.13589 11.063 7.83916 11.063 7.54196 11.063C7.25509 11.063 6.99122 10.9867 6.75224 10.8308C6.625 10.748 6.53767 10.6314 6.47757 10.4901C6.3508 10.1929 6.44236 9.90876 6.54894 9.63963C6.69496 9.27081 6.87478 8.9151 7.04146 8.55423C7.31941 7.9542 7.59736 7.35417 7.87766 6.75554C8.20397 6.05815 8.53404 5.36264 8.85942 4.66525C9.21531 3.90234 9.56744 3.13755 9.92193 2.3737C10.1473 1.88881 10.3736 1.40438 10.599 0.919486C10.7464 0.60262 10.5797 0.340983 10.229 0.340515C10.1046 0.340515 9.98014 0.340515 9.85572 0.340515C9.58059 0.340515 9.30592 0.340515 9.03079 0.340983C8.11664 0.341919 7.2025 0.344727 6.28836 0.344727C6.01369 0.344727 5.77424 0.417742 5.64043 0.676571C5.39816 1.14555 5.15824 1.61641 4.93146 2.09288C4.63802 2.70929 4.35866 3.33226 4.07131 3.95195C3.93422 4.24682 3.79007 4.53841 3.65392 4.83375C3.3431 5.50586 3.0365 6.17984 2.72616 6.85196C2.53225 7.27179 2.33176 7.68882 2.14161 8.11053C1.78807 8.8945 1.43781 9.67988 1.08943 10.4662C0.818991 11.0765 0.526014 11.678 0.480941 12.3627C0.456056 12.7404 0.473898 13.1078 0.637289 13.4537C0.978156 14.174 1.5735 14.5911 2.32284 14.7937C2.97875 14.9711 3.65767 15.0016 4.3333 15.0324C4.79953 15.0535 5.2667 15.0554 5.73339 15.0577C6.04468 15.0591 6.35597 15.0596 6.66725 15.0596C7.12127 15.0596 7.57576 15.0587 8.02978 15.0587C8.48615 15.0587 8.94252 15.0605 9.39889 15.0605C9.74774 15.0605 10.0966 15.0596 10.4459 15.0558C10.7149 15.053 10.9365 14.965 11.06 14.6814L11.0586 14.6809Z" fill="#5B2B13"/>
</svg>