<svg width="42" height="45" viewBox="0 0 42 45" fill="none" xmlns="http://www.w3.org/2000/svg">
<path d="M40.9512 13.8303C40.8736 13.791 40.7975 13.7517 40.7222 13.7119C40.7155 12.9483 40.7074 12.1853 40.6978 11.4217C40.7754 11.3277 40.7927 11.192 40.694 11.1085C40.6748 9.64621 40.6514 8.18339 40.6274 6.72106C40.7093 6.63281 40.7318 6.49804 40.6135 6.39636C39.4351 5.38486 38.2567 4.37336 37.0788 3.36186C36.5571 2.91391 36.0398 2.50768 35.4132 2.21607C34.8978 1.97627 34.3493 1.77819 33.877 1.45589C33.8439 1.22711 33.7735 1.00889 33.5776 0.859732C33.3151 0.659734 32.9673 0.676521 32.654 0.676041C31.809 0.675561 30.964 0.674602 30.119 0.674123C28.429 0.672684 26.739 0.671245 25.0495 0.669806C21.6547 0.666928 18.2598 0.66453 14.865 0.661653C11.485 0.658775 8.10547 0.656377 4.72548 0.653499C3.92646 0.65302 3.12793 0.652061 2.32892 0.651581C2.27383 0.413694 1.85947 0.441511 1.83552 0.730717C1.43362 5.59973 1.39051 10.4884 1.3268 15.3708C1.26261 20.2984 1.19842 25.2259 1.13375 30.1534C1.0983 32.8551 1.06334 35.5572 1.02789 38.2589C0.758676 38.303 0.772567 38.7442 1.07004 38.7538C1.08681 38.8018 1.11938 38.8464 1.17351 38.8804C1.79337 39.2718 2.41323 39.6632 3.03308 40.054C3.6333 40.4329 4.25076 40.7984 4.78583 41.2689C5.29456 41.7164 5.74053 42.2233 6.28614 42.6295C6.84037 43.0425 7.45161 43.3691 8.06045 43.6924C8.32151 43.831 8.55624 43.4756 8.36846 43.3015C12.4531 43.4099 16.5382 43.5187 20.6229 43.6271C24.7837 43.7374 28.944 43.8482 33.1048 43.9585C35.4616 44.0214 37.8184 44.0837 40.1752 44.1466C40.3845 44.2876 40.7179 44.0636 40.5417 43.8343C40.5091 43.7921 40.476 43.7509 40.443 43.7087C40.4942 43.6689 40.5316 43.608 40.5378 43.5269C40.6341 42.2674 40.7299 41.0061 40.7845 39.7432C40.9129 39.6545 40.9618 39.4392 40.8013 39.3241C40.8372 38.314 40.8444 37.3035 40.8003 36.2929C40.7481 35.0992 40.5872 33.9179 40.4741 32.7294C40.4152 32.1083 40.3879 31.4872 40.3821 30.8661C40.4003 30.8081 40.4013 30.7424 40.3812 30.6829C40.3802 30.1808 40.3932 29.6781 40.4147 29.1745C40.5129 26.9122 40.6269 24.6532 40.6806 22.3895C40.9546 22.3813 41.0556 21.9535 40.7587 21.9046C40.7361 21.9008 40.7141 21.8964 40.6921 21.8921C40.739 19.4907 40.7457 17.0883 40.7304 14.6864C40.7294 14.5488 40.728 14.4107 40.727 14.273C41.001 14.3781 41.2286 13.9704 40.9512 13.8299V13.8303ZM40.2844 35.9519C38.2165 35.255 36.1485 34.5582 34.0801 33.8613C34.048 33.8507 34.0183 33.8464 33.9905 33.8474C33.9709 33.1783 33.9503 32.5093 33.9306 31.8402C33.9148 31.3007 33.9019 30.7616 33.8909 30.2225C34.3057 30.529 34.7273 30.8287 35.1833 31.0714C35.6992 31.3457 36.2582 31.5054 36.7971 31.7256C37.3461 31.95 37.8438 32.2872 38.3458 32.5985L40.0128 33.632C40.0329 33.6445 40.0526 33.6531 40.0722 33.6594C40.1383 34.2522 40.2073 34.845 40.2509 35.4402C40.2633 35.6104 40.2744 35.7812 40.2835 35.9514L40.2844 35.9519ZM37.5947 20.7943C38.4727 21.2336 39.2449 21.9665 40.1843 22.2763C40.1695 22.9506 40.1503 23.625 40.1283 24.2993C38.0225 23.7923 35.9847 23.0365 34.0595 22.0422C34.0351 22.0293 34.0106 22.0216 33.9867 22.0168C33.992 21.9166 33.9967 21.8159 34.002 21.7156C34.0379 21.0557 34.0767 20.3957 34.1146 19.7353C35.3078 19.9545 36.5044 20.2485 37.5947 20.7938V20.7943ZM34.1428 19.236C34.1931 18.332 34.2396 17.4274 34.2712 16.5229C34.2789 16.5267 34.2866 16.5301 34.2952 16.5334C34.8461 16.7421 35.3969 16.9512 35.9478 17.1608C36.4699 17.3593 36.9154 17.5857 37.3537 17.9348C37.7465 18.2476 38.1465 18.4735 38.6222 18.6356C39.0945 18.7967 39.5769 18.9195 39.985 19.2192C40.0746 19.285 40.1627 19.2763 40.2293 19.2288C40.2245 19.8413 40.2178 20.4533 40.2083 21.0658C40.2049 21.2926 40.2001 21.5195 40.1958 21.7458C39.8543 21.6101 39.5371 21.4163 39.2258 21.2101C38.729 20.8806 38.2409 20.5506 37.7015 20.2931C36.5835 19.7588 35.3768 19.4586 34.1625 19.2394C34.1558 19.238 34.1491 19.2375 34.1424 19.237L34.1428 19.236ZM40.0008 24.7818C40.0411 24.7914 40.0784 24.7918 40.1124 24.7847C40.0794 25.7233 40.0401 26.6614 39.9941 27.6C37.8797 27.047 35.8295 26.2743 33.8775 25.2906C33.8933 24.3775 33.9206 23.4643 33.9618 22.5506C35.8807 23.5266 37.9085 24.2777 40.0013 24.7813L40.0008 24.7818ZM39.894 28.0901C39.9204 28.0968 39.9453 28.0997 39.9692 28.0988C39.9654 28.176 39.9616 28.2532 39.9577 28.3304C39.9228 28.9976 39.8907 29.6657 39.8816 30.3338C39.5755 30.1179 39.3149 29.8215 39.0112 29.61C38.5633 29.2978 38.0474 29.0959 37.5492 28.8801C36.4173 28.3885 35.2848 27.8969 34.1529 27.4052C34.0399 27.3563 33.9326 27.3909 33.8607 27.4594C33.8602 26.9208 33.8626 26.3822 33.8693 25.8436C35.796 26.7942 37.8155 27.5487 39.8945 28.0901H39.894ZM33.9009 27.8364C35.0602 28.34 36.2194 28.8431 37.3791 29.3467C37.8855 29.5664 38.4153 29.7736 38.8564 30.1127C39.2057 30.3812 39.4974 30.6963 39.8792 30.905C39.8816 31.2316 39.8911 31.5582 39.9093 31.8848C39.9314 32.2714 39.9659 32.6565 40.0056 33.0412C39.5491 32.7582 39.0921 32.4747 38.6356 32.1918C38.1245 31.8747 37.6196 31.5385 37.0649 31.3016C36.538 31.0762 35.9809 30.9275 35.4717 30.6609C34.9332 30.3788 34.4432 30.0158 33.956 29.6541C33.9302 29.635 33.9048 29.6225 33.8799 29.6148C33.8703 29.0148 33.8631 28.4144 33.8607 27.8148C33.8727 27.8225 33.8856 27.8302 33.9005 27.8364H33.9009ZM40.2332 18.7857C39.8231 18.4859 39.3345 18.3459 38.8584 18.189C38.626 18.1123 38.3947 18.0308 38.1805 17.9113C37.9444 17.7799 37.7394 17.6058 37.5276 17.4394C37.108 17.1094 36.6592 16.8998 36.1629 16.7109C35.5847 16.4903 35.0065 16.2716 34.4279 16.0524C34.3752 16.0322 34.3278 16.0313 34.287 16.0428C34.3153 15.0768 34.3249 14.1109 34.3033 13.145C35.1454 13.7996 36.0403 14.3828 36.9873 14.8754C37.4955 15.1402 38.0172 15.378 38.5484 15.5929C39.096 15.814 39.6574 15.9982 40.1489 16.3349C40.1795 16.356 40.2097 16.368 40.2389 16.3742C40.2403 17.178 40.2389 17.9819 40.2336 18.7857H40.2332ZM40.237 15.7991C39.8198 15.5459 39.3589 15.3776 38.9048 15.2006C38.3611 14.9886 37.8289 14.7488 37.3102 14.4816C36.2884 13.956 35.3193 13.3291 34.4226 12.6097C34.379 12.5747 34.3316 12.557 34.2851 12.5522C34.2746 12.2582 34.2607 11.9642 34.2434 11.6706C34.2123 11.1378 34.1601 10.6069 34.1012 10.0764C35.1617 10.8328 36.2927 11.4865 37.4807 12.0222C37.7839 12.1589 38.1001 12.2745 38.3947 12.4299C38.718 12.6006 38.901 12.8399 39.1209 13.1239C39.4183 13.5076 39.8102 13.7785 40.226 14.0121C40.2308 14.6078 40.2341 15.2035 40.236 15.7991H40.237ZM40.2217 13.4188C39.9093 13.2136 39.6286 12.9733 39.3877 12.6519C39.1894 12.3877 38.9709 12.1757 38.6792 12.016C38.3765 11.8505 38.0469 11.733 37.7327 11.5915C36.4331 11.0054 35.2005 10.2779 34.0552 9.42942C34.0451 9.42223 34.0355 9.416 34.0255 9.41024C33.9589 8.84094 33.8904 8.27164 33.8377 7.70091C33.8597 7.71386 33.8851 7.72441 33.9153 7.73064C35.1023 7.99155 36.0158 8.83375 36.9485 9.55892C37.9482 10.3359 39.05 10.9071 40.1996 11.4213C40.2083 12.087 40.2154 12.7527 40.2217 13.4188ZM33.922 2.05876C34.2765 2.25684 34.6511 2.41607 35.0257 2.58537C35.6676 2.87506 36.194 3.25779 36.7267 3.71534C37.8606 4.68847 38.9944 5.66208 40.1283 6.63521C40.1402 7.37285 40.1522 8.11097 40.1637 8.84861C38.9805 8.2539 38.1111 7.2189 37.1344 6.34648C36.1083 5.43043 34.7445 4.79878 33.9852 3.6151C33.9599 3.57529 33.9287 3.54747 33.8952 3.52877C33.9244 3.03909 33.9412 2.5494 33.922 2.05924V2.05876ZM33.8449 4.26353C34.6525 5.24961 35.8357 5.85392 36.7818 6.699C37.8529 7.65534 38.8057 8.80593 40.1508 9.39106C40.158 9.39393 40.1651 9.39681 40.1718 9.39921C40.1795 9.89081 40.1862 10.3819 40.1929 10.8735C39.1084 10.3762 38.0732 9.81647 37.1286 9.07115C36.1892 8.32968 35.2475 7.51338 34.0475 7.24959C33.9436 7.22657 33.8597 7.26494 33.8051 7.32777C33.7888 7.12249 33.775 6.91674 33.7644 6.71099C33.7223 5.89325 33.7845 5.07791 33.8444 4.26305L33.8449 4.26353ZM1.71577 23.7146C1.77996 18.8044 1.81013 13.8927 1.9275 8.98339C1.99025 6.36998 2.09515 3.75706 2.2997 1.15086C5.59778 1.15373 8.89539 1.15613 12.1935 1.15901C15.5131 1.16189 18.8323 1.16429 22.1519 1.16716C25.4715 1.17004 28.7907 1.17244 32.1103 1.17532C32.3063 1.17532 32.5027 1.17532 32.6986 1.17532C32.8586 1.17532 33.0382 1.15805 33.191 1.21321C33.2543 1.23623 33.3007 1.28131 33.3352 1.34078C33.2408 1.42807 33.2102 1.57052 33.339 1.67315C33.3678 1.69617 33.397 1.71824 33.4262 1.7403C33.4348 1.9096 33.4238 2.08034 33.4262 2.18826C33.4444 2.99304 33.3659 3.79591 33.3069 4.59782C33.2476 5.40645 33.2284 6.21123 33.2844 7.02082C33.3405 7.83232 33.4478 8.63903 33.5436 9.44621C33.9316 12.7205 33.8248 16.0068 33.6413 19.2912C33.5493 20.9372 33.4444 22.5828 33.3884 24.2302C33.3323 25.8806 33.3352 27.5319 33.3659 29.1827C33.3965 30.8349 33.454 32.4862 33.501 34.138C33.5244 34.9639 33.5455 35.7898 33.5589 36.6162C33.5656 37.0215 33.5709 37.4272 33.5733 37.833C33.5747 38.0282 33.579 38.2238 33.5757 38.4186C33.5738 38.5375 33.5484 38.5888 33.4875 38.6114C33.455 38.6104 33.4238 38.6162 33.3951 38.6277C33.3711 38.6291 33.3448 38.6301 33.3151 38.6306C32.4921 38.6454 31.6653 38.6118 30.8428 38.6023L28.3548 38.573C26.6959 38.5538 25.0376 38.5341 23.3787 38.515L13.4715 38.3994C10.1543 38.3605 6.83654 38.3222 3.51929 38.2833C2.85489 38.2756 2.19048 38.268 1.52655 38.2603C1.58978 33.4114 1.65301 28.563 1.71625 23.7142L1.71577 23.7146ZM27.6051 43.314C23.4458 43.2036 19.2864 43.0929 15.1265 42.9825C12.7693 42.9197 10.412 42.8574 8.05422 42.7945C7.91147 42.7907 7.83243 42.8876 7.81662 42.9965C7.38694 42.7619 6.96396 42.514 6.56972 42.2233C6.00304 41.8051 5.55227 41.2593 5.01337 40.8099C4.48644 40.3706 3.90012 40.0123 3.32146 39.6473C2.85537 39.3533 2.38927 39.0588 1.92318 38.7648C5.03349 38.8013 8.1438 38.8373 11.2541 38.8737C14.6317 38.913 18.0098 38.9524 21.3874 38.9917C24.7803 39.0315 28.1728 39.0708 31.5657 39.1106L32.8322 39.1255C33.021 39.1279 33.2456 39.1533 33.454 39.1313C35.7509 40.3576 38.0373 41.6435 39.7441 43.6372L27.6046 43.3149L27.6051 43.314ZM40.0602 43.2473C39.2722 42.3379 38.3712 41.5456 37.3782 40.8545C36.2965 40.101 35.1392 39.466 33.9781 38.8454C34.0945 38.6469 34.0739 38.3821 34.0729 38.149C34.0715 37.7437 34.0672 37.339 34.0614 36.9337C34.0724 36.9351 34.0839 36.9361 34.0954 36.9361C34.1093 36.9361 34.1222 36.9346 34.1347 36.9332C34.1615 36.9581 34.196 36.9783 34.2396 36.9898C36.3689 37.574 38.4042 38.4521 40.2911 39.5974C40.2413 40.8157 40.1522 42.0329 40.0598 43.2478L40.0602 43.2473ZM40.3122 39.0272C38.455 37.9279 36.4541 37.079 34.3728 36.5083C34.3335 36.4977 34.2971 36.4958 34.2645 36.5011C34.2248 36.4618 34.1687 36.4363 34.0964 36.4363C34.0815 36.4363 34.0676 36.4378 34.0542 36.4397C34.0418 35.7471 34.025 35.0546 34.0058 34.362C36.1068 35.0699 38.2083 35.7778 40.3093 36.4857C40.3409 37.3327 40.3381 38.1797 40.3127 39.0267L40.3122 39.0272Z" fill="#0F0703" stroke="black" stroke-width="0.74629"/>
<path d="M33.8767 25.2904C35.8287 26.2736 37.879 27.0463 39.9934 27.5998C40.0389 26.6616 40.0786 25.7231 40.1117 24.7845C40.0777 24.7912 40.0408 24.7912 40.0001 24.7816C37.9072 24.278 35.8795 23.5264 33.9605 22.5509C33.9193 23.4646 33.892 24.3777 33.8762 25.2909L33.8767 25.2904Z" fill="#CA6341" stroke="black" stroke-width="0.74629"/>
<path d="M33.9562 29.6535C34.4433 30.0147 34.9329 30.3782 35.4718 30.6602C35.9815 30.9269 36.5381 31.0756 37.065 31.301C37.6198 31.5379 38.1246 31.8746 38.6358 32.1911C39.0923 32.4741 39.5493 32.7576 40.0058 33.0405C39.966 32.6559 39.9315 32.2703 39.9095 31.8842C39.8908 31.5576 39.8817 31.2314 39.8793 30.9043C39.4975 30.6957 39.2058 30.3801 38.8566 30.112C38.4149 29.7729 37.8856 29.5657 37.3793 29.3461C36.22 28.8425 35.0608 28.3394 33.9011 27.8358C33.8862 27.8296 33.8733 27.8219 33.8613 27.8142C33.8637 28.4142 33.8704 29.0142 33.8805 29.6142C33.9054 29.6219 33.9308 29.6343 33.9567 29.6535H33.9562Z" fill="#CA6341" stroke="black" stroke-width="0.74629"/>
<path d="M33.8599 27.4593C33.9318 27.3912 34.0391 27.3562 34.1521 27.4051C35.2841 27.8967 36.4165 28.3883 37.5484 28.8799C38.0466 29.0962 38.5625 29.2977 39.0104 29.6099C39.3141 29.8214 39.5747 30.1178 39.8808 30.3336C39.8899 29.6655 39.9224 28.9974 39.9569 28.3303C39.9608 28.2531 39.9646 28.1759 39.9684 28.0986C39.945 28.0991 39.9196 28.0967 39.8932 28.09C37.8143 27.5485 35.7947 26.7941 33.8681 25.8435C33.8613 26.3821 33.859 26.9207 33.8594 27.4593H33.8599Z" fill="#CA6341" stroke="black" stroke-width="0.74629"/>
<path d="M38.5475 15.5922C38.0163 15.3774 37.4946 15.1395 36.9864 14.8747C36.0394 14.3817 35.1445 13.799 34.3024 13.1443C34.324 14.1102 34.3144 15.0762 34.2861 16.0421C34.3268 16.0306 34.3743 16.032 34.427 16.0517C35.0056 16.2709 35.5838 16.4901 36.162 16.7102C36.6583 16.8996 37.1071 17.1092 37.5267 17.4387C37.7385 17.6051 37.9435 17.7792 38.1796 17.9107C38.3942 18.0301 38.6251 18.1116 38.8575 18.1884C39.3336 18.3452 39.8222 18.4852 40.2323 18.785C40.2375 17.9812 40.239 17.1773 40.2375 16.3735C40.2083 16.3678 40.1781 16.3553 40.1475 16.3342C39.656 15.998 39.0946 15.8138 38.5471 15.5922H38.5475Z" fill="#CA6341" stroke="black" stroke-width="0.74629"/>
<path d="M39.226 21.2095C39.5374 21.4157 39.854 21.6095 40.196 21.7452C40.2003 21.5183 40.2046 21.2915 40.2085 21.0651C40.2181 20.4526 40.2248 19.8406 40.2296 19.2282C40.163 19.2752 40.0748 19.2843 39.9852 19.2186C39.5766 18.9188 39.0943 18.7961 38.6224 18.6349C38.1468 18.4728 37.7468 18.2469 37.354 17.9342C36.9152 17.585 36.4702 17.3591 35.948 17.1601C35.3976 16.9505 34.8468 16.7414 34.2954 16.5328C34.2873 16.5294 34.2791 16.5261 34.2714 16.5222C34.2398 17.4268 34.1934 18.3313 34.1431 19.2354C34.1498 19.2363 34.1565 19.2368 34.1632 19.2378C35.3775 19.4574 36.5842 19.7572 37.7022 20.2915C38.2416 20.5495 38.7292 20.8795 39.2265 21.2085L39.226 21.2095Z" fill="#CA6341" stroke="black" stroke-width="0.74629"/>
<path d="M40.0133 33.6325L38.3463 32.5989C37.8443 32.2876 37.3466 31.9505 36.7976 31.726C36.2587 31.5059 35.6997 31.3462 35.1838 31.0718C34.7277 30.8291 34.3067 30.5294 33.8914 30.2229C33.9024 30.762 33.9148 31.3011 33.9311 31.8406C33.9508 32.5097 33.9714 33.1787 33.991 33.8478C34.0188 33.8468 34.0485 33.8507 34.0806 33.8617C36.1485 34.5586 38.2165 35.2555 40.2849 35.9523C40.2753 35.7821 40.2648 35.6113 40.2523 35.4411C40.2087 34.8459 40.1398 34.2536 40.0736 33.6603C40.054 33.654 40.0344 33.6449 40.0142 33.6329L40.0133 33.6325Z" fill="#CA6341" stroke="black" stroke-width="0.74629"/>
<path d="M34.0021 21.7154C33.9969 21.8157 33.9921 21.9164 33.9868 22.0166C34.0108 22.0214 34.0352 22.0296 34.0596 22.042C35.9848 23.0363 38.0221 23.7917 40.1284 24.2991C40.1504 23.6248 40.1691 22.9504 40.1844 22.2761C39.2451 21.9663 38.4729 21.2334 37.5948 20.7941C36.5046 20.2488 35.308 19.9548 34.1147 19.7356C34.0774 20.396 34.0386 21.056 34.0021 21.7159V21.7154Z" fill="#CA6341" stroke="black" stroke-width="0.74629"/>
<path d="M39.121 13.1233C38.9007 12.8393 38.7182 12.6 38.3948 12.4293C38.1002 12.2739 37.7841 12.1583 37.4808 12.0216C36.2933 11.4863 35.1619 10.8322 34.1013 10.0758C34.1602 10.6063 34.212 11.1372 34.2436 11.67C34.2608 11.964 34.2747 12.258 34.2853 12.5516C34.3317 12.5564 34.3787 12.5741 34.4227 12.6091C35.319 13.328 36.2885 13.9554 37.3103 14.481C37.8291 14.7482 38.3613 14.988 38.905 15.2C39.3596 15.3769 39.8199 15.5453 40.2371 15.7985C40.2352 15.2028 40.2314 14.6072 40.2271 14.0115C39.8108 13.7784 39.419 13.5069 39.122 13.1233H39.121Z" fill="#CA6341" stroke="black" stroke-width="0.74629"/>
<path d="M33.4547 39.1301C33.2463 39.1522 33.0216 39.1267 32.8329 39.1243L31.5663 39.1095C28.1734 39.0697 24.781 39.0303 21.388 38.9905C18.0104 38.9512 14.6323 38.9119 11.2547 38.8725C8.14444 38.8361 5.03413 38.8001 1.92383 38.7637C2.38992 39.0577 2.85601 39.3522 3.3221 39.6462C3.90076 40.0116 4.48709 40.3694 5.01402 40.8087C5.5534 41.2586 6.00368 41.8039 6.57037 42.2221C6.9646 42.5133 7.38758 42.7608 7.81727 42.9953C7.83307 42.8859 7.91211 42.7895 8.05486 42.7934C10.4121 42.8562 12.7694 42.9185 15.1272 42.9814C19.2866 43.0917 23.4459 43.2025 27.6058 43.3128L39.7452 43.6351C38.0384 41.6418 35.7521 40.3555 33.4551 39.1291L33.4547 39.1301Z" fill="#CA6341" stroke="black" stroke-width="0.74629"/>
<path d="M34.1354 36.9321C34.1229 36.934 34.11 36.935 34.0961 36.935C34.0841 36.935 34.0731 36.934 34.0621 36.9326C34.0679 37.3374 34.0722 37.7427 34.0736 38.1479C34.0746 38.3815 34.0952 38.6458 33.9788 38.8443C35.1399 39.4654 36.2972 40.1 37.3789 40.8534C38.3719 41.545 39.2729 42.3369 40.0609 43.2462C40.1534 42.0313 40.2425 40.8141 40.2923 39.5959C38.4049 38.4506 36.37 37.5724 34.2408 36.9882C34.1972 36.9762 34.1627 36.9566 34.1359 36.9316L34.1354 36.9321Z" fill="#CA6341" stroke="black" stroke-width="0.74629"/>
<path d="M34.0056 34.3618C34.0248 35.0544 34.0415 35.7469 34.054 36.4395C34.0674 36.4376 34.0813 36.4361 34.0961 36.4361C34.1685 36.4361 34.2245 36.4616 34.2643 36.5009C34.2973 36.4956 34.3337 36.497 34.3725 36.5081C36.4539 37.0788 38.4548 37.9277 40.312 39.027C40.3374 38.18 40.3402 37.333 40.3086 36.486C38.2076 35.7781 36.1061 35.0702 34.0051 34.3623L34.0056 34.3618Z" fill="#CA6341" stroke="black" stroke-width="0.74629"/>
<path d="M33.8048 7.32754C33.8594 7.26423 33.9433 7.22634 34.0472 7.24936C35.2472 7.51315 36.1885 8.32945 37.1283 9.07093C38.0729 9.81624 39.1081 10.376 40.1926 10.8733C40.1859 10.3817 40.1787 9.89058 40.1715 9.39898C40.1644 9.39658 40.1572 9.39419 40.1505 9.39083C38.8058 8.8057 37.8526 7.65512 36.7815 6.69877C35.8354 5.85418 34.6522 5.24987 33.8446 4.26331C33.7847 5.07816 33.7229 5.8935 33.7646 6.71124C33.7751 6.91699 33.789 7.12275 33.8053 7.32802L33.8048 7.32754Z" fill="#CA6341" stroke="black" stroke-width="0.74629"/>
<path d="M33.9843 3.61396C34.7436 4.79764 36.1074 5.42928 37.1335 6.34534C38.1102 7.21775 38.9796 8.25323 40.1628 8.84747C40.1513 8.10983 40.1393 7.37171 40.1274 6.63407C38.9935 5.66094 37.8597 4.68733 36.7258 3.71419C36.1931 3.25712 35.6667 2.87392 35.0248 2.58423C34.6502 2.41493 34.2756 2.2557 33.9211 2.05762C33.9398 2.54778 33.923 3.03746 33.8943 3.52715C33.9283 3.54585 33.959 3.57415 33.9843 3.61348V3.61396Z" fill="#CA6341" stroke="black" stroke-width="0.74629"/>
<path d="M33.9145 7.73042C33.8848 7.7237 33.8589 7.71363 33.8369 7.70068C33.8896 8.27142 33.9581 8.84072 34.0247 9.41002C34.0348 9.41577 34.0443 9.42153 34.0544 9.4292C35.2002 10.2776 36.4323 11.0052 37.7319 11.5913C38.0461 11.7328 38.3757 11.8503 38.6784 12.0157C38.9701 12.175 39.1886 12.387 39.3869 12.6517C39.6278 12.973 39.9086 13.2129 40.2209 13.4186C40.2146 12.7529 40.2075 12.0872 40.1988 11.421C39.0492 10.9074 37.9474 10.3357 36.9477 9.5587C36.0146 8.834 35.1015 7.99181 33.9145 7.73042Z" fill="#CA6341" stroke="black" stroke-width="0.74629"/>
<path d="M13.4711 38.3996L23.3783 38.5152C25.0371 38.5344 26.6955 38.5541 28.3544 38.5733L30.8424 38.6025C31.6654 38.6121 32.4922 38.6462 33.3147 38.6308C33.3444 38.6303 33.3707 38.6294 33.3947 38.6279C33.4234 38.6164 33.4545 38.6107 33.4871 38.6116C33.5479 38.5886 33.5733 38.5378 33.5752 38.4188C33.5786 38.2236 33.5743 38.028 33.5729 37.8332C33.57 37.4275 33.5652 37.0222 33.5585 36.6165C33.5446 35.7906 33.524 34.9642 33.5005 34.1383C33.4536 32.4865 33.3966 30.8352 33.3654 29.183C33.3348 27.5321 33.3314 25.8808 33.388 24.2305C33.444 22.583 33.5489 20.9375 33.6409 19.2915C33.8243 16.0071 33.9312 12.7208 33.5432 9.44648C33.4473 8.63929 33.34 7.83259 33.284 7.02108C33.2284 6.2115 33.2476 5.40671 33.3065 4.59809C33.3654 3.79618 33.444 2.99379 33.4258 2.18852C33.4234 2.08013 33.4344 1.90987 33.4258 1.74057C33.3966 1.7185 33.3674 1.69644 33.3386 1.67342C33.2098 1.57078 33.2409 1.42834 33.3348 1.34105C33.3003 1.28158 33.2538 1.23649 33.1906 1.21347C33.0373 1.15832 32.8577 1.17558 32.6982 1.17558C32.5022 1.17558 32.3058 1.17558 32.1099 1.17558C28.7903 1.17271 25.4711 1.17031 22.1515 1.16743C18.8318 1.16455 15.5127 1.16215 12.193 1.15928C8.89495 1.1564 5.59734 1.154 2.29926 1.15112C2.09472 3.75733 1.98981 6.37025 1.92706 8.98365C1.8097 13.893 1.77952 18.8047 1.71533 23.7149C1.6521 28.5638 1.58887 33.4122 1.52563 38.261C2.19004 38.2687 2.85445 38.2764 3.51838 38.2841C6.83562 38.3229 10.1533 38.3613 13.4706 38.4001L13.4711 38.3996Z" fill="#CA6341" stroke="black" stroke-width="0.74629"/>
</svg>
